<mxfile host="app.diagrams.net" agent="Mozilla/5.0 (Windows NT 10.0; Win64; x64) AppleWebKit/537.36 (KHTML, like Gecko) Chrome/129.0.0.0 Safari/537.36" version="24.7.17">
  <diagram name="Страница — 1" id="szNScmFa9jbvm7XiIqlW">
    <mxGraphModel dx="2683" dy="2223" grid="1" gridSize="10" guides="1" tooltips="1" connect="1" arrows="1" fold="1" page="1" pageScale="1" pageWidth="827" pageHeight="1169" math="0" shadow="0">
      <root>
        <mxCell id="0" />
        <mxCell id="1" parent="0" />
        <mxCell id="_T2XmVHFqXw21ZcmqbBh-514" value="" style="rounded=1;whiteSpace=wrap;html=1;rotation=90;glass=0;fillColor=#F5F5F5;fontColor=#333333;strokeColor=#666666;" vertex="1" parent="1">
          <mxGeometry x="-824.27" y="-837.45" width="380" height="238.32" as="geometry" />
        </mxCell>
        <mxCell id="_T2XmVHFqXw21ZcmqbBh-513" value="" style="rounded=1;whiteSpace=wrap;html=1;rotation=90;glass=0;fillColor=#F5F5F5;fontColor=#333333;strokeColor=#666666;" vertex="1" parent="1">
          <mxGeometry x="630" y="-849.48" width="379.17" height="244.17" as="geometry" />
        </mxCell>
        <mxCell id="_T2XmVHFqXw21ZcmqbBh-489" value="" style="rounded=1;whiteSpace=wrap;html=1;rotation=90;glass=0;fillColor=#F5F5F5;fontColor=#333333;strokeColor=#666666;" vertex="1" parent="1">
          <mxGeometry x="119.99999999999999" y="-850.16" width="379.17" height="244.17" as="geometry" />
        </mxCell>
        <mxCell id="_T2XmVHFqXw21ZcmqbBh-509" value="" style="rounded=1;whiteSpace=wrap;html=1;rotation=90;glass=0;fillColor=#FFFFFF;fontColor=#333333;strokeColor=#FFFFFF;" vertex="1" parent="1">
          <mxGeometry x="129.82999999999998" y="-849.64" width="359.51" height="232.9" as="geometry" />
        </mxCell>
        <mxCell id="_T2XmVHFqXw21ZcmqbBh-176" value="" style="rounded=1;whiteSpace=wrap;html=1;" vertex="1" parent="1">
          <mxGeometry x="-747.0799999999999" y="-814.1800000000001" width="212.36" height="168.52" as="geometry" />
        </mxCell>
        <mxCell id="_T2XmVHFqXw21ZcmqbBh-1" value="" style="rounded=1;whiteSpace=wrap;html=1;rotation=90;glass=0;fillColor=#F5F5F5;fontColor=#333333;strokeColor=#666666;" vertex="1" parent="1">
          <mxGeometry x="-389.19" y="-837.45" width="380" height="238.32" as="geometry" />
        </mxCell>
        <mxCell id="_T2XmVHFqXw21ZcmqbBh-76" value="" style="rounded=1;whiteSpace=wrap;html=1;strokeColor=none;" vertex="1" parent="1">
          <mxGeometry x="-296.73" y="-896.14" width="195.08" height="60.04" as="geometry" />
        </mxCell>
        <mxCell id="_T2XmVHFqXw21ZcmqbBh-62" value="" style="rounded=1;whiteSpace=wrap;html=1;fontSize=9;strokeWidth=1;strokeColor=#4F4F4F;" vertex="1" parent="1">
          <mxGeometry x="-749.27" y="-900" width="230" height="360" as="geometry" />
        </mxCell>
        <mxCell id="_T2XmVHFqXw21ZcmqbBh-3" value="Экран принятого заказа" style="text;html=1;align=center;verticalAlign=middle;resizable=0;points=[];autosize=1;strokeColor=#9673a6;fillColor=#e1d5e7;rounded=1;glass=1;sketch=1;curveFitting=1;jiggle=2;" vertex="1" parent="1">
          <mxGeometry x="-717.08" y="-951.91" width="160" height="30" as="geometry" />
        </mxCell>
        <mxCell id="_T2XmVHFqXw21ZcmqbBh-88" value="&lt;div style=&quot;font-size: 12px;&quot;&gt;&lt;font style=&quot;font-size: 12px;&quot;&gt;Добавьте необходимые товары,&lt;/font&gt;&lt;/div&gt;&lt;div style=&quot;font-size: 12px;&quot;&gt;&lt;font style=&quot;font-size: 12px;&quot;&gt;&amp;nbsp;и мы доставим их вместе&amp;nbsp;&lt;/font&gt;&lt;/div&gt;&lt;div style=&quot;font-size: 12px;&quot;&gt;&lt;font style=&quot;font-size: 12px;&quot;&gt;с текущим заказом&lt;/font&gt;&lt;/div&gt;" style="text;html=1;align=center;verticalAlign=middle;resizable=0;points=[];autosize=1;strokeColor=none;fillColor=none;fontSize=9;" vertex="1" parent="1">
          <mxGeometry x="-299.19000000000005" y="-896.12" width="200" height="60" as="geometry" />
        </mxCell>
        <mxCell id="_T2XmVHFqXw21ZcmqbBh-97" value="&lt;font style=&quot;font-size: 14px;&quot;&gt;User Story:&lt;br/&gt;&lt;br&gt;&lt;/font&gt;&lt;font style=&quot;font-size: 14px;&quot;&gt;Как пользователь приложения по доставке товаров, Я хочу иметь возможность добавить товар к уже оплаченному заказу, чтобы получить товар в одном заказе&lt;/font&gt;" style="text;whiteSpace=wrap;html=1;fillColor=#e1d5e7;strokeColor=#9673a6;sketch=1;curveFitting=1;jiggle=2;" vertex="1" parent="1">
          <mxGeometry x="-761.66" y="-1090" width="751.66" height="90" as="geometry" />
        </mxCell>
        <mxCell id="_T2XmVHFqXw21ZcmqbBh-106" value="Экран каталога,&amp;nbsp;&lt;div&gt;выбор товаров&lt;/div&gt;" style="text;html=1;align=center;verticalAlign=middle;resizable=0;points=[];autosize=1;strokeColor=#9673a6;fillColor=#e1d5e7;rounded=1;glass=1;sketch=1;curveFitting=1;jiggle=2;" vertex="1" parent="1">
          <mxGeometry x="-270.14000000000004" y="-964.01" width="120" height="40" as="geometry" />
        </mxCell>
        <mxCell id="_T2XmVHFqXw21ZcmqbBh-107" value="Экран оплаты добавленного товара" style="text;html=1;align=center;verticalAlign=middle;resizable=0;points=[];autosize=1;strokeColor=#9673a6;fillColor=#e1d5e7;rounded=1;glass=1;sketch=1;curveFitting=1;jiggle=2;" vertex="1" parent="1">
          <mxGeometry x="209.59" y="-959.87" width="220" height="30" as="geometry" />
        </mxCell>
        <mxCell id="_T2XmVHFqXw21ZcmqbBh-118" value="При нажатии на кнопку&amp;nbsp;&lt;div&gt;&lt;b style=&quot;font-size: 11px;&quot;&gt;Изменить заказ&lt;/b&gt;,&lt;div style=&quot;font-size: 11px;&quot;&gt;клиент переходит&amp;nbsp;&lt;/div&gt;&lt;div style=&quot;font-size: 11px;&quot;&gt;в Каталог товаров&lt;/div&gt;&lt;/div&gt;" style="text;html=1;align=center;verticalAlign=middle;resizable=0;points=[];autosize=1;strokeColor=#9673a6;fillColor=#e1d5e7;fontSize=11;labelBorderColor=none;sketch=1;curveFitting=1;jiggle=2;" vertex="1" parent="1">
          <mxGeometry x="-479.17" y="-757.65" width="140" height="70" as="geometry" />
        </mxCell>
        <mxCell id="_T2XmVHFqXw21ZcmqbBh-128" value="" style="edgeStyle=segmentEdgeStyle;endArrow=classic;html=1;curved=0;rounded=0;endSize=8;startSize=8;fillColor=#e1d5e7;strokeColor=#9673A6;exitX=0.8;exitY=0.001;exitDx=0;exitDy=0;exitPerimeter=0;" edge="1" parent="1">
          <mxGeometry width="50" height="50" relative="1" as="geometry">
            <mxPoint x="385.8321000000001" y="-626.7770000000002" as="sourcePoint" />
            <mxPoint x="530" y="-718" as="targetPoint" />
            <Array as="points">
              <mxPoint x="386" y="-632" />
              <mxPoint x="530" y="-632" />
              <mxPoint x="530" y="-718" />
            </Array>
          </mxGeometry>
        </mxCell>
        <mxCell id="_T2XmVHFqXw21ZcmqbBh-131" value="" style="edgeStyle=segmentEdgeStyle;endArrow=classic;html=1;curved=0;rounded=0;endSize=8;startSize=8;fillColor=#e1d5e7;strokeColor=#A680B8;" edge="1" parent="1">
          <mxGeometry width="50" height="50" relative="1" as="geometry">
            <mxPoint x="738.41" y="-815.6400000000001" as="sourcePoint" />
            <mxPoint x="846.6200000000001" y="-669.8100000000003" as="targetPoint" />
            <Array as="points">
              <mxPoint x="738.41" y="-825.6400000000001" />
              <mxPoint x="737.41" y="-825.6400000000001" />
              <mxPoint x="737.41" y="-669.6400000000001" />
            </Array>
          </mxGeometry>
        </mxCell>
        <mxCell id="_T2XmVHFqXw21ZcmqbBh-134" value="" style="rounded=1;whiteSpace=wrap;html=1;rotation=90;glass=0;strokeColor=none;" vertex="1" parent="1">
          <mxGeometry x="640.3199999999999" y="-844.41" width="358" height="231.06" as="geometry" />
        </mxCell>
        <mxCell id="_T2XmVHFqXw21ZcmqbBh-145" value="После оплаты&amp;nbsp;&lt;div&gt;появляется уведомление&amp;nbsp;&lt;/div&gt;&lt;div&gt;о состоянии заказа&lt;/div&gt;" style="text;html=1;align=center;verticalAlign=middle;resizable=0;points=[];autosize=1;strokeColor=#9673a6;fillColor=#e1d5e7;labelBorderColor=none;spacing=9;spacingBottom=3;spacingLeft=2;spacingRight=4;sketch=1;curveFitting=1;jiggle=2;" vertex="1" parent="1">
          <mxGeometry x="480" y="-796.0300000000001" width="180" height="70" as="geometry" />
        </mxCell>
        <mxCell id="_T2XmVHFqXw21ZcmqbBh-153" value="Экран подтверждения заказа" style="text;html=1;align=center;verticalAlign=middle;resizable=0;points=[];autosize=1;strokeColor=#9673a6;fillColor=#e1d5e7;rounded=1;glass=1;sketch=1;curveFitting=1;jiggle=2;" vertex="1" parent="1">
          <mxGeometry x="714.3800000000001" y="-971.39" width="190" height="30" as="geometry" />
        </mxCell>
        <mxCell id="_T2XmVHFqXw21ZcmqbBh-162" value="Заказ оплачен,&amp;nbsp;&lt;div&gt;&lt;span style=&quot;background-color: initial;&quot;&gt;и мы начинаем его собирать&lt;/span&gt;&lt;/div&gt;" style="text;html=1;align=center;verticalAlign=middle;whiteSpace=wrap;rounded=0;fontStyle=1" vertex="1" parent="1">
          <mxGeometry x="-737.0799999999999" y="-875.8100000000001" width="187.82" height="30" as="geometry" />
        </mxCell>
        <mxCell id="_T2XmVHFqXw21ZcmqbBh-174" value="" style="rounded=1;whiteSpace=wrap;html=1;strokeColor=none;" vertex="1" parent="1">
          <mxGeometry x="-743.49" y="-690.6600000000001" width="205.18" height="37.02" as="geometry" />
        </mxCell>
        <mxCell id="_T2XmVHFqXw21ZcmqbBh-173" value="&lt;div style=&quot;font-size: 8px;&quot;&gt;&lt;font style=&quot;font-size: 8px;&quot;&gt;&lt;br&gt;&lt;/font&gt;&lt;/div&gt;&lt;font style=&quot;&quot;&gt;&lt;div style=&quot;font-size: 8px;&quot;&gt;&lt;font style=&quot;font-size: 8px;&quot;&gt;&lt;br&gt;&lt;/font&gt;&lt;/div&gt;&lt;b style=&quot;&quot;&gt;&lt;font style=&quot;font-size: 9px;&quot;&gt;Адрес доставки:&amp;nbsp;&lt;/font&gt;&lt;/b&gt;&lt;/font&gt;&lt;div style=&quot;font-size: 8px;&quot;&gt;&lt;div style=&quot;&quot;&gt;&lt;span style=&quot;background-color: initial;&quot;&gt;&lt;font style=&quot;font-size: 8px;&quot;&gt;Минская 2ж&lt;/font&gt;&lt;/span&gt;&lt;/div&gt;&lt;div style=&quot;&quot;&gt;&lt;span style=&quot;background-color: initial;&quot;&gt;&lt;font style=&quot;font-size: 8px;&quot;&gt;&lt;br&gt;&lt;/font&gt;&lt;/span&gt;&lt;/div&gt;&lt;div style=&quot;&quot;&gt;&lt;div&gt;&lt;br&gt;&lt;/div&gt;&lt;/div&gt;&lt;/div&gt;" style="rounded=0;whiteSpace=wrap;html=1;align=left;strokeColor=none;" vertex="1" parent="1">
          <mxGeometry x="-738.8999999999999" y="-680.1100000000001" width="94.55" height="26.03" as="geometry" />
        </mxCell>
        <mxCell id="_T2XmVHFqXw21ZcmqbBh-177" value="&lt;font style=&quot;font-size: 13px;&quot;&gt;Состав заказа:&lt;/font&gt;" style="text;html=1;align=center;verticalAlign=middle;whiteSpace=wrap;rounded=0;fontStyle=1;fontSize=13;" vertex="1" parent="1">
          <mxGeometry x="-743.08" y="-800.0800000000002" width="110" height="11.76" as="geometry" />
        </mxCell>
        <mxCell id="_T2XmVHFqXw21ZcmqbBh-184" value="Оставить как есть&amp;nbsp;" style="strokeWidth=1;shadow=0;dashed=0;align=center;html=1;shape=mxgraph.mockup.buttons.button;strokeColor=#666666;fontColor=#333333;mainText=;buttonStyle=round;fontSize=10;fontStyle=1;fillColor=#f5f5f5;whiteSpace=wrap;" vertex="1" parent="1">
          <mxGeometry x="-633.0799999999999" y="-589.3200000000002" width="103.81" height="25" as="geometry" />
        </mxCell>
        <mxCell id="_T2XmVHFqXw21ZcmqbBh-377" value="Вода питьевая&amp;nbsp; &amp;nbsp; &amp;nbsp; &amp;nbsp;1 шт.&amp;nbsp; &amp;nbsp; &amp;nbsp; &amp;nbsp; 100 р" style="whiteSpace=wrap;html=1;align=left;strokeColor=none;fontSize=10;" vertex="1" parent="1">
          <mxGeometry x="-737.0799999999999" y="-762.7900000000001" width="200" height="20" as="geometry" />
        </mxCell>
        <mxCell id="_T2XmVHFqXw21ZcmqbBh-376" value="Молоко 2.5%&amp;nbsp; &amp;nbsp; &amp;nbsp; &amp;nbsp; &amp;nbsp; 1 шт.&amp;nbsp; &amp;nbsp; &amp;nbsp; &amp;nbsp;100 р" style="whiteSpace=wrap;html=1;align=left;strokeColor=none;fontSize=10;" vertex="1" parent="1">
          <mxGeometry x="-738.06" y="-782.7900000000001" width="200" height="20" as="geometry" />
        </mxCell>
        <mxCell id="_T2XmVHFqXw21ZcmqbBh-378" value="&amp;nbsp;Груша сезонная&amp;nbsp; &amp;nbsp; &amp;nbsp; 1 шт.&amp;nbsp; &amp;nbsp; &amp;nbsp; &amp;nbsp;100 р" style="whiteSpace=wrap;html=1;align=left;strokeColor=none;fontSize=10;" vertex="1" parent="1">
          <mxGeometry x="-740.8999999999999" y="-742.7900000000001" width="200" height="20" as="geometry" />
        </mxCell>
        <mxCell id="_T2XmVHFqXw21ZcmqbBh-388" value="Вы можете изменить заказ или отменить" style="whiteSpace=wrap;html=1;align=left;strokeColor=none;fontSize=10;" vertex="1" parent="1">
          <mxGeometry x="-737.08" y="-830" width="217.81" height="20" as="geometry" />
        </mxCell>
        <mxCell id="_T2XmVHFqXw21ZcmqbBh-389" value="" style="line;strokeWidth=2;html=1;" vertex="1" parent="1">
          <mxGeometry x="-737.0799999999999" y="-722.7900000000001" width="197.81" height="10" as="geometry" />
        </mxCell>
        <mxCell id="_T2XmVHFqXw21ZcmqbBh-390" value="&lt;b&gt;Итого &lt;/b&gt;: 300 р" style="whiteSpace=wrap;html=1;align=left;strokeColor=none;fontSize=10;" vertex="1" parent="1">
          <mxGeometry x="-737.0799999999999" y="-710.6600000000002" width="200" height="20" as="geometry" />
        </mxCell>
        <mxCell id="_T2XmVHFqXw21ZcmqbBh-393" value="&lt;font style=&quot;font-size: 10px;&quot;&gt;Изменить заказ&lt;/font&gt;" style="strokeWidth=1;shadow=0;dashed=0;align=center;html=1;shape=mxgraph.mockup.buttons.button;strokeColor=#666666;fontColor=#ffffff;mainText=;buttonStyle=round;fontSize=10;fontStyle=1;fillColor=#E89FED;whiteSpace=wrap;" vertex="1" parent="1">
          <mxGeometry x="-630.8999999999999" y="-627.7500000000001" width="101.63" height="25" as="geometry" />
        </mxCell>
        <mxCell id="_T2XmVHFqXw21ZcmqbBh-420" value="&lt;font style=&quot;font-size: 10px;&quot;&gt;Отменить заказ&lt;/font&gt;" style="strokeWidth=1;shadow=0;dashed=0;align=center;html=1;shape=mxgraph.mockup.buttons.button;strokeColor=#666666;fontColor=#333333;mainText=;buttonStyle=round;fontSize=10;fontStyle=1;fillColor=#f5f5f5;whiteSpace=wrap;" vertex="1" parent="1">
          <mxGeometry x="-738.9" y="-632.0000000000001" width="101.63" height="25" as="geometry" />
        </mxCell>
        <mxCell id="_T2XmVHFqXw21ZcmqbBh-421" value="&lt;font style=&quot;font-size: 10px;&quot;&gt;Связаться с нами&lt;/font&gt;" style="strokeWidth=1;shadow=0;dashed=0;align=center;html=1;shape=mxgraph.mockup.buttons.button;strokeColor=#666666;fontColor=#333333;mainText=;buttonStyle=round;fontSize=10;fontStyle=1;fillColor=#f5f5f5;whiteSpace=wrap;" vertex="1" parent="1">
          <mxGeometry x="-738.8999999999999" y="-589.32" width="101.63" height="25" as="geometry" />
        </mxCell>
        <mxCell id="_T2XmVHFqXw21ZcmqbBh-423" value="" style="endArrow=none;html=1;rounded=0;strokeWidth=2;" edge="1" parent="1">
          <mxGeometry relative="1" as="geometry">
            <mxPoint x="-735.8699999999999" y="-643.35" as="sourcePoint" />
            <mxPoint x="-537.0799999999999" y="-643.0500000000001" as="targetPoint" />
          </mxGeometry>
        </mxCell>
        <mxCell id="_T2XmVHFqXw21ZcmqbBh-425" value="Поиск" style="dashed=0;shape=rect;shadow=1;strokeColor=#eeeeee;strokeWidth=1;fillColor=#ffffff;fontSize=22;fontColor=#CCCCCC;align=left;spacingLeft=65;whiteSpace=wrap;html=1;" vertex="1" parent="1">
          <mxGeometry x="-297.34" y="-822.13" width="193" height="25.11" as="geometry" />
        </mxCell>
        <mxCell id="_T2XmVHFqXw21ZcmqbBh-426" value="" style="dashed=0;shape=mxgraph.gmdl.search;strokeWidth=2;strokeColor=#666666;" vertex="1" parent="_T2XmVHFqXw21ZcmqbBh-425">
          <mxGeometry y="0.5" width="16" height="16" relative="1" as="geometry">
            <mxPoint x="22" y="-8" as="offset" />
          </mxGeometry>
        </mxCell>
        <mxCell id="_T2XmVHFqXw21ZcmqbBh-427" value="" style="dashed=0;shape=mxgraph.gmdl.voice;strokeWidth=2;strokeColor=#666666;fillColor=#666666;" vertex="1" parent="_T2XmVHFqXw21ZcmqbBh-425">
          <mxGeometry x="1" y="0.5" width="12" height="20" relative="1" as="geometry">
            <mxPoint x="-34" y="-10" as="offset" />
          </mxGeometry>
        </mxCell>
        <mxCell id="_T2XmVHFqXw21ZcmqbBh-466" value="" style="verticalLabelPosition=bottom;shadow=0;dashed=0;align=center;html=1;verticalAlign=top;strokeWidth=1;shape=mxgraph.mockup.graphics.simpleIcon;strokeColor=#999999;fillColor=#ffffff;" vertex="1" parent="1">
          <mxGeometry x="-296.76" y="-767.1" width="50" height="50" as="geometry" />
        </mxCell>
        <mxCell id="_T2XmVHFqXw21ZcmqbBh-467" value="" style="verticalLabelPosition=bottom;shadow=0;dashed=0;align=center;html=1;verticalAlign=top;strokeWidth=1;shape=mxgraph.mockup.graphics.simpleIcon;strokeColor=#999999;fillColor=#ffffff;" vertex="1" parent="1">
          <mxGeometry x="-221.76" y="-767.1" width="50" height="50" as="geometry" />
        </mxCell>
        <mxCell id="_T2XmVHFqXw21ZcmqbBh-468" value="" style="verticalLabelPosition=bottom;shadow=0;dashed=0;align=center;html=1;verticalAlign=top;strokeWidth=1;shape=mxgraph.mockup.graphics.simpleIcon;strokeColor=#999999;fillColor=#ffffff;" vertex="1" parent="1">
          <mxGeometry x="-146.76" y="-767.1" width="50" height="50" as="geometry" />
        </mxCell>
        <mxCell id="_T2XmVHFqXw21ZcmqbBh-469" value="" style="verticalLabelPosition=bottom;shadow=0;dashed=0;align=center;html=1;verticalAlign=top;strokeWidth=1;shape=mxgraph.mockup.graphics.simpleIcon;strokeColor=#999999;fillColor=#ffffff;" vertex="1" parent="1">
          <mxGeometry x="-296.76" y="-692.1" width="50" height="50" as="geometry" />
        </mxCell>
        <mxCell id="_T2XmVHFqXw21ZcmqbBh-470" value="" style="verticalLabelPosition=bottom;shadow=0;dashed=0;align=center;html=1;verticalAlign=top;strokeWidth=1;shape=mxgraph.mockup.graphics.simpleIcon;strokeColor=#999999;fillColor=#ffffff;" vertex="1" parent="1">
          <mxGeometry x="-221.76" y="-692.1" width="50" height="50" as="geometry" />
        </mxCell>
        <mxCell id="_T2XmVHFqXw21ZcmqbBh-471" value="" style="verticalLabelPosition=bottom;shadow=0;dashed=0;align=center;html=1;verticalAlign=top;strokeWidth=1;shape=mxgraph.mockup.graphics.simpleIcon;strokeColor=#999999;fillColor=#ffffff;" vertex="1" parent="1">
          <mxGeometry x="-146.76" y="-692.1" width="50" height="50" as="geometry" />
        </mxCell>
        <mxCell id="_T2XmVHFqXw21ZcmqbBh-472" value="" style="verticalLabelPosition=bottom;shadow=0;dashed=0;align=center;html=1;verticalAlign=top;strokeWidth=1;shape=mxgraph.mockup.graphics.simpleIcon;strokeColor=#999999;fillColor=#ffffff;" vertex="1" parent="1">
          <mxGeometry x="-296.76" y="-617.1" width="50" height="50" as="geometry" />
        </mxCell>
        <mxCell id="_T2XmVHFqXw21ZcmqbBh-473" value="" style="verticalLabelPosition=bottom;shadow=0;dashed=0;align=center;html=1;verticalAlign=top;strokeWidth=1;shape=mxgraph.mockup.graphics.simpleIcon;strokeColor=#999999;fillColor=#ffffff;" vertex="1" parent="1">
          <mxGeometry x="-221.76" y="-617.1" width="50" height="50" as="geometry" />
        </mxCell>
        <mxCell id="_T2XmVHFqXw21ZcmqbBh-474" value="" style="verticalLabelPosition=bottom;shadow=0;dashed=0;align=center;html=1;verticalAlign=top;strokeWidth=1;shape=mxgraph.mockup.graphics.simpleIcon;strokeColor=#999999;fillColor=#ffffff;" vertex="1" parent="1">
          <mxGeometry x="-146.76" y="-617.1" width="50" height="50" as="geometry" />
        </mxCell>
        <mxCell id="_T2XmVHFqXw21ZcmqbBh-487" value="" style="edgeStyle=segmentEdgeStyle;endArrow=classic;html=1;curved=0;rounded=0;endSize=8;startSize=8;fillColor=#e1d5e7;strokeColor=#E89FED;" edge="1" parent="1">
          <mxGeometry width="50" height="50" relative="1" as="geometry">
            <mxPoint x="-510" y="-630" as="sourcePoint" />
            <mxPoint x="-460" y="-680" as="targetPoint" />
          </mxGeometry>
        </mxCell>
        <mxCell id="_T2XmVHFqXw21ZcmqbBh-488" value="" style="edgeStyle=segmentEdgeStyle;endArrow=classic;html=1;curved=0;rounded=0;endSize=8;startSize=8;entryX=0;entryY=0.5;entryDx=0;entryDy=0;fillColor=#e1d5e7;strokeColor=#9673A6;" edge="1" parent="1" target="_T2XmVHFqXw21ZcmqbBh-425">
          <mxGeometry width="50" height="50" relative="1" as="geometry">
            <mxPoint x="-420" y="-760" as="sourcePoint" />
            <mxPoint x="-350" y="-840" as="targetPoint" />
            <Array as="points">
              <mxPoint x="-420" y="-810" />
            </Array>
          </mxGeometry>
        </mxCell>
        <UserObject label="Напитки" placeholders="1" id="_T2XmVHFqXw21ZcmqbBh-490">
          <mxCell style="text;html=1;strokeColor=none;fillColor=none;align=left;verticalAlign=middle;whiteSpace=wrap;overflow=hidden;" vertex="1" parent="1">
            <mxGeometry x="-297.34" y="-717.1" width="56.76" height="20" as="geometry" />
          </mxCell>
        </UserObject>
        <UserObject label="Сыр" placeholders="1" id="_T2XmVHFqXw21ZcmqbBh-491">
          <mxCell style="text;html=1;strokeColor=none;fillColor=none;align=left;verticalAlign=middle;whiteSpace=wrap;overflow=hidden;" vertex="1" parent="1">
            <mxGeometry x="-221.76" y="-717.1" width="56.76" height="20" as="geometry" />
          </mxCell>
        </UserObject>
        <UserObject label="Молоко" placeholders="1" id="_T2XmVHFqXw21ZcmqbBh-492">
          <mxCell style="text;html=1;strokeColor=none;fillColor=none;align=left;verticalAlign=middle;whiteSpace=wrap;overflow=hidden;" vertex="1" parent="1">
            <mxGeometry x="-146.76" y="-717.1" width="56.76" height="20" as="geometry" />
          </mxCell>
        </UserObject>
        <UserObject label="Хлеб" placeholders="1" id="_T2XmVHFqXw21ZcmqbBh-493">
          <mxCell style="text;html=1;strokeColor=none;fillColor=none;align=left;verticalAlign=middle;whiteSpace=wrap;overflow=hidden;" vertex="1" parent="1">
            <mxGeometry x="-299.19" y="-642.1" width="56.76" height="20" as="geometry" />
          </mxCell>
        </UserObject>
        <UserObject label="Мясо" placeholders="1" id="_T2XmVHFqXw21ZcmqbBh-494">
          <mxCell style="text;html=1;strokeColor=none;fillColor=none;align=left;verticalAlign=middle;whiteSpace=wrap;overflow=hidden;" vertex="1" parent="1">
            <mxGeometry x="-221.76" y="-642.1" width="56.76" height="20" as="geometry" />
          </mxCell>
        </UserObject>
        <UserObject label="Рыба" placeholders="1" id="_T2XmVHFqXw21ZcmqbBh-495">
          <mxCell style="text;html=1;strokeColor=none;fillColor=none;align=left;verticalAlign=middle;whiteSpace=wrap;overflow=hidden;" vertex="1" parent="1">
            <mxGeometry x="-150.14" y="-642.1" width="56.76" height="20" as="geometry" />
          </mxCell>
        </UserObject>
        <UserObject label="Колбаса" placeholders="1" id="_T2XmVHFqXw21ZcmqbBh-496">
          <mxCell style="text;html=1;strokeColor=none;fillColor=none;align=left;verticalAlign=middle;whiteSpace=wrap;overflow=hidden;" vertex="1" parent="1">
            <mxGeometry x="-300.14" y="-566.7" width="56.76" height="20" as="geometry" />
          </mxCell>
        </UserObject>
        <UserObject label="Овощи" placeholders="1" id="_T2XmVHFqXw21ZcmqbBh-497">
          <mxCell style="text;html=1;strokeColor=none;fillColor=none;align=left;verticalAlign=middle;whiteSpace=wrap;overflow=hidden;" vertex="1" parent="1">
            <mxGeometry x="-221.76" y="-566.7" width="56.76" height="20" as="geometry" />
          </mxCell>
        </UserObject>
        <UserObject label="Выпечка" placeholders="1" id="_T2XmVHFqXw21ZcmqbBh-498">
          <mxCell style="text;html=1;strokeColor=none;fillColor=none;align=left;verticalAlign=middle;whiteSpace=wrap;overflow=hidden;" vertex="1" parent="1">
            <mxGeometry x="-146.76" y="-566.7" width="56.76" height="20" as="geometry" />
          </mxCell>
        </UserObject>
        <mxCell id="_T2XmVHFqXw21ZcmqbBh-499" value="&lt;font style=&quot;font-family: Tahoma; font-weight: 400; text-wrap: nowrap; font-size: 16px;&quot; color=&quot;#ffffff&quot;&gt;Оплатить&amp;nbsp;&lt;/font&gt;&lt;div style=&quot;color: rgb(0, 0, 0); font-family: Tahoma; font-weight: 400; text-wrap: nowrap; font-size: 16px;&quot;&gt;&lt;font style=&quot;font-size: 16px;&quot; color=&quot;#ffffff&quot;&gt;добавленные товары&lt;/font&gt;&lt;/div&gt;" style="strokeWidth=1;shadow=0;dashed=0;align=center;html=1;shape=mxgraph.mockup.buttons.button;strokeColor=#9673a6;mainText=;buttonStyle=round;fontSize=17;fontStyle=1;fillColor=#E89FED;whiteSpace=wrap;" vertex="1" parent="1">
          <mxGeometry x="203.58999999999997" y="-653.1899999999999" width="210" height="57" as="geometry" />
        </mxCell>
        <mxCell id="_T2XmVHFqXw21ZcmqbBh-500" value="" style="rounded=1;whiteSpace=wrap;html=1;strokeColor=none;" vertex="1" parent="1">
          <mxGeometry x="203.18" y="-733.9" width="205.18" height="22.71" as="geometry" />
        </mxCell>
        <mxCell id="_T2XmVHFqXw21ZcmqbBh-501" value="&lt;div style=&quot;font-size: 9px;&quot;&gt;Оплата картой&amp;nbsp; *** 1411&lt;/div&gt;" style="rounded=0;whiteSpace=wrap;html=1;align=left;strokeColor=none;fontSize=9;" vertex="1" parent="1">
          <mxGeometry x="209.59" y="-746.2099999999999" width="131.79" height="26.03" as="geometry" />
        </mxCell>
        <mxCell id="_T2XmVHFqXw21ZcmqbBh-502" value="&lt;font style=&quot;font-size: 13px;&quot;&gt;Состав заказа:&lt;/font&gt;" style="text;html=1;align=center;verticalAlign=middle;whiteSpace=wrap;rounded=0;fontStyle=1;fontSize=13;" vertex="1" parent="1">
          <mxGeometry x="198.49999999999991" y="-858.6400000000001" width="110" height="11.76" as="geometry" />
        </mxCell>
        <mxCell id="_T2XmVHFqXw21ZcmqbBh-503" value="Огурцы&amp;nbsp; &amp;nbsp; &amp;nbsp; &amp;nbsp; &amp;nbsp; &amp;nbsp; &amp;nbsp; &amp;nbsp; &amp;nbsp; &amp;nbsp;1 шт.&amp;nbsp; &amp;nbsp; &amp;nbsp; &amp;nbsp;200 р" style="whiteSpace=wrap;html=1;align=left;strokeColor=none;fontSize=10;" vertex="1" parent="1">
          <mxGeometry x="207.40000000000003" y="-809.51" width="200" height="20" as="geometry" />
        </mxCell>
        <mxCell id="_T2XmVHFqXw21ZcmqbBh-504" value="Молоко 2.5%&amp;nbsp; &amp;nbsp; &amp;nbsp; &amp;nbsp; &amp;nbsp; 1 шт.&amp;nbsp; &amp;nbsp; &amp;nbsp; &amp;nbsp;100 р" style="whiteSpace=wrap;html=1;align=left;strokeColor=none;fontSize=10;" vertex="1" parent="1">
          <mxGeometry x="207.4" y="-835.37" width="200" height="20" as="geometry" />
        </mxCell>
        <mxCell id="_T2XmVHFqXw21ZcmqbBh-505" value="Томаты&amp;nbsp; &amp;nbsp; &amp;nbsp; &amp;nbsp; &amp;nbsp; &amp;nbsp; &amp;nbsp; &amp;nbsp; &amp;nbsp; &amp;nbsp; 1 шт.&amp;nbsp; &amp;nbsp; &amp;nbsp; &amp;nbsp;200 р" style="whiteSpace=wrap;html=1;align=left;strokeColor=none;fontSize=10;" vertex="1" parent="1">
          <mxGeometry x="205.7700000000001" y="-786.03" width="200" height="20" as="geometry" />
        </mxCell>
        <mxCell id="_T2XmVHFqXw21ZcmqbBh-506" value="" style="line;strokeWidth=2;html=1;" vertex="1" parent="1">
          <mxGeometry x="209.59000000000003" y="-766.03" width="197.81" height="10" as="geometry" />
        </mxCell>
        <mxCell id="_T2XmVHFqXw21ZcmqbBh-507" value="&lt;div style=&quot;font-size: 14px;&quot;&gt;&lt;font style=&quot;font-size: 14px;&quot;&gt;Итого&lt;/font&gt;&lt;/div&gt;" style="whiteSpace=wrap;html=1;align=left;strokeColor=none;fontSize=10;" vertex="1" parent="1">
          <mxGeometry x="203.58999999999997" y="-686.8499999999999" width="50" height="20" as="geometry" />
        </mxCell>
        <mxCell id="_T2XmVHFqXw21ZcmqbBh-508" value="" style="endArrow=none;html=1;rounded=0;strokeWidth=2;" edge="1" parent="1">
          <mxGeometry relative="1" as="geometry">
            <mxPoint x="208.61" y="-711.1899999999999" as="sourcePoint" />
            <mxPoint x="407.4" y="-710.89" as="targetPoint" />
          </mxGeometry>
        </mxCell>
        <mxCell id="_T2XmVHFqXw21ZcmqbBh-519" value="" style="shape=image;verticalLabelPosition=bottom;labelBackgroundColor=default;verticalAlign=top;aspect=fixed;imageAspect=0;image=data:image/png,iVBORw0KGgoAAAANSUhEUgAAADwAAAA8CAIAAAC1nk4lAAANO0lEQVRoBe1Z+XcUVRaev2Q8o0cQiCMIghBRHFEcRAwSlE2QaEhiiAy4sI8sioCJJ0BCFkGChCAi2bvJ1tmaEBISYkxCkASyr2RPOit9v/F2V73uvK7u9swPnnGO79zTee/e7373q6pXVa9e/oI/YPvLH1Az/h9FPzSjqBYH42l5MM3cRX/dSiuCSbo4XiHsn7mLMYcSqLgWD80SZNKwqRvhGVgbTrP20N+20ZR/0aID9E44xeShtXcS0tnA6ZkeGUdEJmbtpEcCIZnEJUUfCeSsyEyMjktAtPYg6Cw9GqTBaSV5LJB2xlF7n5wojbVF629h/k56NACPBmDRZ3Q8FdkVaOri4aMBEoPibOpiTGgq460wzz2UXmYDp9zE9A85NCWQtp0l/S00d/OBmcZwrx3JNxF0mh4PYsCMbZT1sy3RsSeLNhO+TqSpATTFH95HqPguyG46TPHHFH+ZRHISoegu3vySGaYGUGgyEeFsFven+CMoklq6ZQYxbuhEYCTDnvCj8znCLXcmiTYTPvqGpvnhqQCKy4XZTq41b5ofpvnJFJpOM+FCDjwCmW3dVzTdn2ZspvMGJbeyCzFVFFyiFAgupZgqquyCdXw6HTM2Mz67XK5lHU8SfTyBPHzxbBDdqJbR9R0IPMnRJ33lQ3nSl/1bwqihQ866Uc1sHr7w8MX5LCWaX0MnsnEiG+G5ClWYQfHk1yieM2mc8mwQdWrNb5vozBLM8qWnfamsRq6dVQrPLTTzff49lyZHY9KwIECJZt+So7dq8LQvRw1qaGAISbl0OR1XMhWJP6TxMNFA/YO29G3hnHXonHyOAPU5PTqGVz+m2T64mGlLs/YMJZjjw6HdUdQ/JEet475B7IpkzBwfyi6VMRcyMNsHSz+mhBp6MMLR4UEUZ5BRpwi6nkw3Msg0wKEHI0it5/uosQNz36M5PtTRIxMqZ/o7PeZuwnufy4fV0IYX/GjuJpxOkjMdx1HxjHzejxrbJwWJsOkghz4Iw7cF1DvM0bF+tBYo5doLaNyiuG8YMUYKy8a9TsbsDOOsy+qdIEhZtNmM14JowUYUVwq/0tkWzP6DUfLByDh1vD+C8dtDZHxRBRZsxMubkapHloEG7aaBmoqhIRiySaeHTo/iYmZIv85ZHzuwsejyO1i4ARt2yJXu1LF/acCkqSZqaHb6BrBkMy3cgLsNcvydXexPPoPbCWgslGsBaLxOtxM4ejsBNWkMaGhlAeschLHoU3G0aD2ivpfLhF9gf3isRgEZajc+eZ6zIuLkrMiL7I+8KPvtUuXu8AgWrcc/35dTWPSWfbR4HW45zI3Avewvq5K5XI9vVWLxOmz5t1yppIL9W/fLfhdspmFOWeYjp7Bob39ashYtk+8e9m9mv/1jyEUBEerrx5K1WOVweppb2b/sfewz4kKVrANAbBXtM3J0nxEhRQxobOEU309kMItetp6Wrsaw5WEkagNYvob9Ew/tfe77ExNYupo5JejwsMW/DpdyqFfr0dlnwkUjncnCmSyk3eL0bCOnfHZEpmLRy99mc2wb/Gj52+h2eEw6Iu09Xd3MtilAriQKWZ/HncOIqVYwZ6upw/IcNA3CmEHZqehsZcojX7MAfYY9PfdZ9IpVbI5tx276NVTucsHlmPVTObPt3K0hWhTqMSH6OoVmK5jjeRRZQF2W0z8+gO5y9re24s23yHs1dTsssCxz2hve3o7V8f335O2N06c1ymugVdfp05x16ZI6tvvrbSk0YEJiDl3MQFy6wnwxi4cJudSnPr+JcOQI80RGalRn0avfZBPt8n0F11CPNSvp3dXU99s+KAD09uLd1bRmJTXWK3yCTRSqqaLcVOSmIi9FKZSnVzw1lYonMZ4lbVxNvVqlWfS6FWyi7SmkcfV7KfQorVuBE8G8JnbbiBB6zIL/SsGOmbHT8hywjkWhgWY0F9B9yxsEQO1Vai6gwRZGESE5Hmu9mMdnLfU4zA1lTm/wwgYvm6QdBbhmuQ8AdLTBbzVHf/jOjW4ixmzwQsB66lSfnvkt2FFgY7YWeuCwghWI9laEHmaSd96gPVu5cyZc42zxmfZZziba3mv4opCGJxRHRSl8VpDPcpw6ij4nT5K+Hpw6whifFVSpLkFNE/iyiPZeE8RKIZ8VdOooCnPR0YqxUYyOoLUJ13OY4T0vJgl4G+U38aCD2TZ7UU+XjcHaY9G+r7OJtt+I/UZcVp9Hv75lKkux9S3yfR0frKS4SKoqQ283Jib4t6oMcZG0ZRVHg9ZQlaoYwA/VZKUSzNZCvl4M1jYvOh9O/eqpiT7GSEOKIFA6LNr/NTbRPs+H1Yx2i54HbYg+TAHLyAqWfgOWUfSXeKDOCgD5DQrJ5/mCWCnU8wCZ8QjbTzs2UuAbFLSSPvOnsP2Up0Pv5JNalMMpYQ5vfha9ZSmbaEfyYLXDOVRgp/vXa9JSB915CtlOe9bTh8v4N2Q76WLZb9+u1eNwDgkeEZIKCb+zTmcLCzvgsCJg0VtfZRMtOBf2llxFww47GAIsdYbHkVRJ9unBuTaIVMgWcNIbG2FhH3nJ9yKL3r6ETbTQHEgWkU+ljRh3uQgZf4jSRkTlk5QbarcTIBUSFZ11RkwsbPcbWqI/fQWfvmJLDM+GpkXnkOG2xoOPCIbbFJ1Dmlnh2TZmqZAt4KTX2cjCjmlOj12LsWuxLS/KABfWrb5pRULXoCt8lN0XnlRIMDjrlGWxsBiHZQxPj70vsYlmXRw6+zX8LF+szHJlPeksRTBLhYTfWSfuAO19CUXJcpxF73+RTbRzmXBt+RU23Xk/k2vwObs9CamQqKjZ6W7CwZfp4GIaeCDHWfShRWyiXciAW/vvwFIhQaLRIVzaTYcWIdXhU1xZexx+HoeftyVeSodbE2i3yEvpAstV7AvZAg6967GMPLqYhpwtmI4txLGFtrz4NLg1gXaLjLfbRpMKCZJJHcKNWHz1Ah1biNDFNGjZtZkEsH65hHgixNPmT74KtybQbpHJVwWWq4R4ol9dQtoCaq+nCYk7KcQTXy+ksxu4k/aF7f5RUZbPrZMvUugCjFu+0gCkpZFeD9cm8l3D9Hpms4LHTAhdwHbCk3R7UZ2O3iZMjHDd7jpUp0G3h0KfZyXH/0H3CzDQxsiTL9Cgw1KWb8RzqyhsPnobFSX5uZShg2sTol3DMnQoyFFE9zYgbD5OvogwT+5omyeObcO+q9Rh4gpX97Kwnxx2kVh0oh9FzENziaKkooS/h12bEO0alp2Kn9Wd8+abiJiHE2twOAXBn+PEuwhfgojncGohwl7nYfBRDlkXmOm1fKh30zhF/5E8Q1j0tWMUPRel3yhK2uphTHFjQrRbZJu6TiyJ4irh2xGS695iLBuQ/U2InouLK7REN+bj2zlI3aTExkdRlEyFyXBhQrQLTGEy84yPKtiUjfTtHESFI8Lg3qIs/ySYGGFhMQu1RE8MI3Y+xcymIfW+riujm0lwYUK0C8zNJNRZdjAADLbgu2fo3DzE6BGT6d4uWLZExodwbjZin9MSzTNkF8XOwk11A2rMhLIkKkuEMxOinQHYn0pjlvsJQPGXzH/Bx/1ry/q2SjOy0P46xM5CiuZ6mvcrfkHcLLo0l0bUN1BXLSoSnJoQ7QLTdU9BjXTh0jN0cSaSziLl6m+yKssXan0qvp+J/CAnZxqAMZAuP4XCj1UEoeUmVcdD04RozWh1POcq/2ADc15+Cnn+MOgpSwe3ZtDTkGUBbE2sddis4qeHtQ01InkexT+JJvUdRma0FVLtFTiamqQRqr2C9kIidbunUYf4J5H0NA3W414FFaTArd2z7DMNNiDxKbrydxrWfLkIBXVxSPbA1Xnos9tI77+Lhh+p/kfYm0ixd9b/iIYE6rf7j15vJbMleyBnJV9AMqO2wNWtUpaI2muWAyYUB1GyB8oPqFdelBT/klM8hJItpJuOzAU08IsNZR7BQBU60qklnpovo1Pd7QTQmcOeph+pI50GqmBWH3B8G91B2jxm03nw7/0YJiQzOn6i2wl0Jx6S3U6gjnLlEtV+A910PuBRh8W0sjS1qQPMYyjZTGnTYHiG2tR5Yg/4jf02PbKeYZ5Sf2rVIX0G6adT3Vkle7wfPWXUnEH1V6ghkVrSqaecxvstUcL9bxifPoM67b7k7eva5rTwmkdRtpmypiJrKio/oVGHKSWQmp3RdlR+pKT/5EfmMUY1xcIwjZ3lW2ikWTOPnaZ6lH/AMMM0aop1CtMQzRfxIepOIPsJypmCPA+q2k4deow0wezwLw4rsXmEox06VG6jPA9L1jSqD+fJIFpnGvLmqIRbqUOnED40wVSL9iRUBJG1onE2uuw2HgSD6GiLtoZNNagMoNyplP84frvlTqWqD8hkdzuKYqNtuPMJGZ9wSmicQjV7aUxr4S9INOa0fczaH2lEcwSq3qXi+XRjOl1/DI52YzpHb/tQcyRGmxw5JnnGWtESjer3qGQBXZ9BRTOo9BWqfp/aYzFmtxs4KWfywNWZnoz8Hxr9Kfr3uhh/nunf60z/B+lsV86OAL+iAAAAAElFTkSuQmCC;" vertex="1" parent="1">
          <mxGeometry x="-146.76" y="-692.5" width="49.34" height="49.34" as="geometry" />
        </mxCell>
        <mxCell id="_T2XmVHFqXw21ZcmqbBh-520" value="" style="shape=image;verticalLabelPosition=bottom;labelBackgroundColor=default;verticalAlign=top;aspect=fixed;imageAspect=0;image=data:image/png,iVBORw0KGgoAAAANSUhEUgAAAD4AAAA7CAIAAACsbq6gAAAEzklEQVRoBe1Z/0tbdxTt/zLYJtV+ES21Vm3aWdHONcxi283N6SrazVFWkFoEoVDo2hHW6dYvUAhzK5M5hEBiXDOtW9LRdordDy1d6tjYN9jWRbL9kpR6z8heDHcv793riy8twsJFj59z7jknL/Fbsg5r8xaLxdatzeaIRCJrtXooFHJQ/eES3g2iZoCeOAxXpmaAhkJ4uFTIAx8IBBxUHw7iyR735/1Q8avvOE4l3bh2J5NU0p0Z41Ywjt7OmHiOUwHdnV310i6UdmVTioEd3QFn1TcewsZDWf9i4GJVT6VR/mqxJpV2VDsjdnDV3/qAKjtQpDn9oeOn+0qrR+dR1UHbOyn+o+PLY7eQ89zeSVUdFJ23E1qfr6h6IonmN6i6HaOT1i4FnHLPj8OobkdjL91fdOCkVyfCMR/VvoQ3TxM5flStq5g8idD3tuMIvfpYGJ42eA87uyTWlZdP8z0Xk/C+Tp42fBpeFmmflerf/4Sml+mZF/HVnOa0Yt7O88Yt1LdRwyu08MOKvJTqrx2jhhdQjBn2Wzz5hv2ZuO5+Cyr/3ijVmw6gSJO2+kGeTmfj8ovmnyjVm/ejeX/+1qpOZE+Z5cFKdW8rvK1c7wKWPWWWxyvVW/ahZR/Xu4BlT5nl8Ur11hZYDrdwig1Duy2Z5VtK9YPPw3K4hVNsGNptySzfUqq3edHm5XoXsOwpszxeqd6+F+17ud4FLHvKLI9Xqnc+h9zwtdVgw9DOQWb5llK961nkhq+tBhuGdg4yy7eU6j170LOH613AsqfM8nilem8Tepu43gUse8osj1eqH2nEkUaudwHLnjLL45XqRxtwtIHrXcCyp8zyeKV632707eZ6F7DsKbM8XqneX4/+eq7P4vif8F2nd27QvYRj1s7TMJJZHqZUH9iFgV1cn8UjX9KFKVyYwkfXLP4tkFk7T8NaZnkVpfrgTgzu5PosDs/Q+CTGJxGatqgus3aehrXM8ipK9RMenPBwfRYnfsPNKzT7OS3+7pi18zSMZJaHKdVP1uFkHde7gGVPmeXxSvVTtThVy/UuYNlTZnm8Uv1MDc7UcL0LWPaUWR6vVPdVw1fN9WY8NEeDUZhmaM7ieze3KXvKbM5Ef6X37Dac3cb1Znz+Kr03DdOcn5Gqy54yy+OVqz5cheEqrjfjL76mTz6DaaavS9VlT5nl8Ur1c1txbivXm/HfSUQnaCaI3ERDlBRfsJU9ZZbHK9UvbsHFLVxvgVN/4ZdZiofpbph+volU0kLDj2RPmeU+SvVLlbhUyfUuYNlTZnm8Ut1fAX8F17uAZU+Z5fFK9ZFyjJRzvQtY9pRZHq9Uv7wZlzdzvQtY9pRZHq9UH92E0U1c7wK29Iwuvx1gyVqmKtXHNmBsg+Vi4Yf5nvPfwR/JGuazdklK9fEyjJfZ7RZ4bvKMxzExkRnjZmKFDKV6oBSBUmG9EIp7/noXc4HMfBvL/gLmrOyuVA+uR3C9tcPiLcQOULCMDM1/PpZR9CAtfmO9KHgCmTi7RJOdUn2qjsIlSOS9fZf6A5GKDCVMpJLS901xSMxmV8zEv18b7NUd0p9AuUWletxHV57GI557PjeqLz3Ago9i1TT1FB7BxGppwUdLD3JXVgLKVZdWHzf3f/XH8Qis7av+D0BAVB6Tf4G5AAAAAElFTkSuQmCC;" vertex="1" parent="1">
          <mxGeometry x="-145.43" y="-764.94" width="48.01" height="45.69" as="geometry" />
        </mxCell>
        <mxCell id="_T2XmVHFqXw21ZcmqbBh-521" value="" style="shape=image;verticalLabelPosition=bottom;labelBackgroundColor=default;verticalAlign=top;aspect=fixed;imageAspect=0;image=data:image/png,iVBORw0KGgoAAAANSUhEUgAAADoAAAA0CAIAAABU07wPAAAJT0lEQVRoBcVaC1MTyRbe/0nQbEoRdF29VbuilQSRECMXcVlAKK+KqDyv7vWCRoT4zA2LUckadSEk6xpWMCsggTx7pl+3TnqYTMLkCVVOTVV6Jv34+vQ53zl9er7h2xelVJbl7adqfmNJ3vIv2WDRv0/14GdzlLFqeg6Hw5FIJBqNfqO2ppQihNTHSguJFG/swgaLfKwdv5qnGHNK+Wac/xZgww/IYYcyh6Y++cNKxZD9fn8wGIxEIlm4hJBUKlUpSlGfMe64BlhPdOONLR00hPAZPz3WDnWMVuT5jVY0kMfj8fv94XA4CxdjnEgkKupFrXzvf9RgkRscki5WtVpa4gN3icEi11rRf59WgNjlcnm93lAolAM3Ho+rXZdf+LzB9jehWit6vQhy/f09a74k77fAmwaH1DaAJ57RLxqRTz+nNWZksMiTM+UidjqdHo8nEAjsAdzOERBY323COZ99Q/c1AZS8e18T6hola1FFT9w+WI0aM1r4oKM5OyU1Pj7udrvn5+d3C3cpwmqtyHgafdliqxvMZNPBqkL/tgW5vIpE+8dBj4+2YyTthJf/Zs/g9t4C0d5ygWjbrwOCkvfQJGGMy5if7Ib6tx9C2+LX3sBd3WD7Lch0BsUSPPyJlQSqVhiZAoiBMDQx2VCiFCHtDdwbThDttQnMOe+7DeUy71orevk7aIWgv3vuEja3B3BlzOttYP6RdSbJ/EBzMa3dOY1DdhCqbwFsrrELJlzk2gO4z9/CSK1XwG/PvoGy9q61orFpEk/yZJo7PQpzaSuAxj8khPC6s5LBIn/8uxhF7AFcYVjP5mAdhcFp0dy4l2NAo1M6qmKyoXiSX/oF/irOwbuFuxnn+5rQty0oLXHG+JFzOaI1WOTIeo60Pq3pG+LULBUcbO7BG7GcJlrd2C3cJ69g9TtHQIRLkXwoxub8UCmW5FrZq+XWK/JGTGHrulb00Ksfsu0WrtCEmdegCS5vvuIaLHI8qZUOf/tH/pQEYqMVIYmvbzLhGoUxbO2IXHYFNy1xYzMyWlEyDZh0Kew/j7PcRClvvZKvLaqAe8ZILDM3f5CJOPP4ebwUyVGMXcF9vQiisl9V2OcfF3ScWY0Z3XlCP62x4BJrG9CpoMIVodyLdzC9zbjCxCYber+cRbwruIMZ73DnCQywldBXSi2acsq1VjQ6Bc6ZUIUrGlqlT2sK4l3BPdUD0loMQ19zGZ4vB1A5dfrHYcUY451DwG6nejDJ8GH1cDdiEIKZbAhnOvq3S4dQy0FWqM7EM1i0tMQbO0Eo45kovnq4TwWFDStewN5fQi8LwSr0vvY0Ena28AEspK4VqL16uMLG3T6QAaH84JnKQgUtyrqz0oEWnebt1xUjdmRk8fglrRKuCMYPnoEZwz7nT3021WLaWTZaUecwmVughPC1qE4PNWa0vgmG8XROcUZVwu24AUs/6FQ0YWCiMk2w9OKpWSpYFhaH6LsYg0X2ZBzQyipM5vh5XA3cV/MwV5MNCa+TQrz4VkeV62GHPDxJ/tLEXEsRNnif1NsL+g5hYUgCljTZUMVw16KswQGR3tQsaC3nfPypju9VIUI+oRl1DRNfgBGlBY8l+INfqfli6TUR/JBIAdwDzRXCTSN+6mcYo/06FlmjrUQxI2vqlVzPaXx7S0MIfzVPLwyR2tM6hqWdoVqefQNTXP4MyvBDRyXKIGPFMf74ExZBAue8a1SHbg/Z0cgDsvw56zzDn9jNe0QsiwrFYJHrbWhgAgeX2K9+nSWqMaPNTMLj0Qv4t+8WKVcZZMyFxz9yLhvCighVO7woi1BdeObJGSo2utpq+y2o4wb2voMMmriE/LR1DBa5Y1AxZUFkbl95RAZYM3vxent2c/LHR8jZ5A0gHu1XIceou+gnu/HkDBUy4xyyfa8XWc8Y2dlVjVkJblZWwX3WtUKEWVq6KtYGh6Qa9UaMHT1X2lDUyRw5Jw/eJ9pocPkzG3lAinQycFcR7YWboG8jD+CxBFzG+IVBqK3FmkgpBqeiKVQwNqPOEeJboFlOSPKpWWrpA24pclsvYjmjJ4I0685KwlpKwL39ELCabOiv7TA5LfHmS8VGEiCa+mSXN58TOoeJ0aqvP1ro5h4s9iBftpjYHgtnUUK675fZvkxG0ZsJmTmHBJHQem3v2vL3bXhsmqysZjnhwwq74dThBG0rbdnSiwXxpRAXxNx7S9GKEnBFEKPqECFc+F5t72q5xoy877L7wWgMsgonMskvtU7JQtcoEYuOJH72KthG8yVZ0hw8FFQGsa090JLNW10rGhgYT8OOTcaQGWm/jnWzpUXgms6gxy8Vp5dMK0cbjV04lru7LAhXhNsiqtdNz+wcu6FVqi6MdPRj1acsRZjY853oxhXshEW4/WoeZswYP36+AtraOZNCb378CfsCWUV3+6gpEzfb+xUNVrzI9k9B6QpGFGnu9U2dYLQQgjLfmy9ity9LcMk0v3xH8ecDE8rObBtk9rcgXGMmChEZ7USKi8cyoRSpVnsadQ4RbWqfMe72URFD1rUi79vtsC0LMlsqCFd4RdUq371nRaLSIvjEX8ZmCBLcviwTCwh/rsBxi6jTPUqKnxcVIzIRKIpcsehakkEMF4ZIQ2sJnySGP3gGtQ3gXx4Rf5Cl83NlfDHMOgZJbcZr/NCB34SyGpwV5o5SQemKE7LDDll3xvEkJPB8C/TxS3rXrdxODzzO+GlwiUVjO4bKvGAMMhLqEWy9DY0/zcZl+m00bwvClTG3ZqL9ers8t1BMnzS9FSu+X2ZDk+TIPxWGOXoOOz1U7EyLNcv9ryBcziHfrWa1LL0QE+aRdm5XOk8pxP1BNjZNtOmzxk78+GUFEtX2WwyuSCBMP6fftSnWsK8JWfqk/nH86AV9vcg+/s02tlgiBRNLpPiXLbayyt6E2KMXdOAuOdmd49uOteORqZwYUoujzHIJuKIXYWTnb+Jy4iktS+xvQi2X5bFpYK7qvgjIm4b+IWuhI2wkgUXf99DLd0jbAG7swt+34UN2CPUP2dHRdnziZ+y4hq/cIXfddDHM1L1N3qhVP+ocYYsPBNbX18PhsN/v93g8LpfL6XSOf9XL6XS6XC6dDwTE5xebm5uRSCQYDPr9fq/X6/F43F/18ng8Xq9X5/ML8XFLMpmMRqORSCQcDodCoUAgMP9Vr0AgEAqF1I9b/g/ZtSw/nIDqeQAAAABJRU5ErkJggg==;" vertex="1" parent="1">
          <mxGeometry x="-222.62" y="-690" width="55.77" height="50" as="geometry" />
        </mxCell>
        <mxCell id="_T2XmVHFqXw21ZcmqbBh-522" value="" style="shape=image;verticalLabelPosition=bottom;labelBackgroundColor=default;verticalAlign=top;aspect=fixed;imageAspect=0;image=data:image/png,iVBORw0KGgoAAAANSUhEUgAAADcAAAAyCAIAAAB3dNSiAAADeElEQVRoBe2Z/U8TMRjH+T8FhgQFA8HExPgDG8zBNCNCDC+SOFESgcBEE+EHlJcE9QfBl5CAqAkChuAGWdC4HUd37bWmLtxB9/R6w3Fc4pbL6J7r+nz67fO03LMKduxlmiYhxDAMhJCu65qmZX3w0jStwoKklBJCrI++atiUpmkahuErOAvmBCVCyLrhq4ZNSQjRdd1XcBaMTYkx1jTNuiFrHByylXU6+cp8+BzfeYxD/fh6N77WhRs7cX0UXe5AlUFDuAJBVB/l19Uu3NKHbw3igQnydJ68WTZ39iilMle2/QRlNpu175xs6YjNLZmhfnyhBeAQsIr6eKUj1ztGPm044bqinH9nXroJwNWEUXQQD02Rl2/N5a90fZsm0zSjMU1nhzl7lijHLVmd7e7TjR26sk4XPprjM6RnlDTHsDWlGz14bQMWVk2ZmCXWQFYjEjfer5m5UmwJqTSPn8ZOjlvdihY+mPb8jloKyrVNapHlG4EgmlsCBjoa8JR/MWFDU1yOqjb0PSkqqqDsHhaFHJk+w53/XoK760+ILhSUDVExYVNpcaKnVA/62naKL11TTIwkBWVNSEwaA0PDl8iWM1hl0KgJiYeLgrIpJmq5uw9rGb5vROKiBjJ4WedUmmvZHBOVUFDeHRXjcvSFGDR5lEjcaHdNKes8Ms3dDUyILhSUq9+AHF9cLX2OM8YWV83qVhQIoq0f4nIpKBljQ5P2xpvfjKra0JctcSDZ4rq0f96kgSDPganXgARqSkpZ/Jm47tFBMXRc0si6dTzgCSALJzUlYyxzwFPv+FXTJqZhofvxGXIxghKzYpAV9mSM1f49gTXJ/2SuKBkTKSuD6nSuC/MVrG1Xz8caH5wAY+wMKROzpC6MnrjTMr9Q50Apcwnay5SgLCojmFW+0xLMKo8oQYVAWcGs8ogSVAikBI0eUYIKgUCg0SNK0Ld7Y5nSvVaqnmUtHRWSPTaAXzo3LWWPDf6iBGlkxnPTUgYE2suUoCxyo8NZ7yMtHc56LyhdbjoOZ70XlEVtOmBEeEEJOi7K+D9R1raLJcJfmaLEcur8M8OrUQ5P7m6fxwuLb33jRFaKcCIquKfprHeMV3i6h6VVELeUyTRtKJAzH0wlea8Loz1JZbSI2gZjbP837Rkj4E8q/wIaaEW3H+GkYyHcrZYFC+WpoUxZOrn/AILp3jbnvABWAAAAAElFTkSuQmCC;" vertex="1" parent="1">
          <mxGeometry x="-303.65999999999997" y="-695.66" width="61.23" height="55.66" as="geometry" />
        </mxCell>
        <mxCell id="_T2XmVHFqXw21ZcmqbBh-523" value="" style="shape=image;verticalLabelPosition=bottom;labelBackgroundColor=default;verticalAlign=top;aspect=fixed;imageAspect=0;image=data:image/png,iVBORw0KGgoAAAANSUhEUgAAAEAAAABACAYAAACqaXHeAAAACXBIWXMAAAsTAAALEwEAmpwYAAAOWklEQVR4nO2ae1hU57XGx+bpaRPT/HHSnvQUFLnMcBGFiKLiLca7OCoqEQGR+wBDatR46ZMYrE3aaFBRMUYTE01UIgMjMICIwCg3o6enzWkatcZTjTE5MadNjHgDhN95vs0eZms3MBvtX4f1PO8zM2u9613r+/aePfv79uh0fdZnfdZnfdZn2i2SRwZkMs7NTLa7mZPumVx1y6TF3Uy9Gt3dTIMUz+Sq4Ltl8saADMYKHVfKeSxlkJuZ1W6ZVLhl8qVbJrfdzdxwN3PW3Uy5uxmz2/O46/7Z5r6MRwdmsmqgmaseZlCD6gC64AqdgRms9FjCj9XyvNMZMDCDAx5m7nal0YkMWj3M7B5g5hf/lMF7ZrDAM43LXukg4JnOea80srzSCfcwMcjhV8t1xGReuGc666R82e+VzudeJiLuyUkjyjONJqlWGne80tkvehiUgYeYsKdW0H9QGr5eGSzySueQZzrNcl/XPdMxPryRZ/EDg4nXDGm0G9LAkMYpfSrjdTr6KWlyTHUC1GP080lngt7EaTnerjexXvgNJpZ11jNR4JXKwJ7a9EnF25CGVc5p05vIfCiD908lz98E/qnc8TORIXxqVIljUp+A7mJCzy8Vs5+JZomXRr2/iXb/VNr8U/mlg7a6jog1dZSuqeOsw7emnvPCJ2I6Og6Iv4lVcm6bb+oDngmBKbwWmAKByXwfkMyzXQxOH5iCTfAGJ9OqxhF+SSeFkoAkfNQ4Q1KZJOrIPAansNQR21bDlm01IKO5019Nq8O/tYbNnfVSWOXo2y+Vf+/V4IOTWRCcTHtQEi1BSYxR4wxNYl5wMteDk0F6TeRFNV5QMiuDk2hy8IISmauql8pYUU/wgpKd14SCCvzyj/KV5ShYjjonIL+CVuHLr+Cq5QiD7+v/sFxvl+bBj4rk0WGJXA5JhJAE52motOGJzB+WQKvMOTAqiX/tTnPEYp4clkCe4Iu8YQn3XvQcNiyBF2TNz5fZyVl5Er3wN5TgV1/CV3U25wQ0lNBab+NqXXHH4Jc14rOigQ3i6/B0Ej4hCbSIWkFxuGmagNAEVoUmQGg8jV0MxjAiniaJk8ArmrTjWS/yRsRzfWR8x+DuNfqFxnNKcDJyYXsNV3KOd/AuFBJ4oQCbg/nXAmwXrfiL97l2fHKr+SK3BrZXdUzuiHgsQmd4PBkuNxgZySNhS7gatgRGLWayGidsCRUiHhbH+1oG35kfxwGRPzqOsi7iU0V8SiqUlkNZOV+XlxPQlZ7Nhr6snCtlHVxKyzp0w5YQI/dZ6nJz42MYNy4Oxi3mz2rxsUsIkeJxfDtpMU/qemETFvHTsYv5TuiELSFYjTMujk9FvGQPnDkMnx52Hvn77VMrJYLTCSufC39YDL5yr+dcby6W7GdiYUIMr3cR3yTiz8Q4r7q9sQmx5Mg6b6jGY9ggxWPZ2OsakTwuazS5nDQpmpOTY2ByDJPU4pOjOS3iz0YzsbeNSToxTBI6k6L5SC3+bCxTpD6iaehtjekxPCHX+N7lpKnRfDMtGqbGqv9eT4vm7yLe29O/s7lIfiZ0pi3ib2rxGQsxiPisZFhbB2trKe5Ka20dNonjQC2XpLEswk+qEc0ZlxubEUXzzCgQp49afOZCWkQ8JJUf6h7AIiP5F6Ej6qnFZ8/mJyI+Kwb2VvL1nqquL4K7j2HYU8WXe6pA4J1jlEu9RhEr1Vio4SI4eyEIdBU3PsdXEifqwVZd4ZG4ybWu9NRLbVHH4JfXYljZQJEj/mIDxatOdvwM2kvwq7bxVU0p2G0skHu1iHzjQtJdbiwiEgS6iX8k4vOeU/+J1FBnilyr0ZVeso9h2GznyuYa5+32ZjvNm+1c3VzdcSN0sQC/i4XkAP3mzUM/dwEtEZG0RkZquBFasAAEuomvF/H589muZcAqOrmyzrqeesk7hiHvKF/mVcLBo84JOFhJs/DlVXL14D23wvSbP59iWf8tTY1FzQMBpW9pIzs64/MZGjWP9qgImqKMPKXrhUVG8nMpfx7t0XMYolZH2Yu9lJzjpSDB5pwAeynNDr/dxlaHf+E81ki5EdwUtTQ1FxMBAkrfiga+z/o9jyk4hYITHcGh+/cFejb6Rc/FItfJ76zxMf2XN3JdrRdxSp8tZMFfrFT8pZC/OuLnCrkgfOcPM19wJO0IVkfPpU3OvR6n5fQXFjcXBHQKW90Aqxucy9O4uXgvnsM1iTuH37k+CfQTfLnGt7FGPBU1Vog6ar0smcOgnpTj56GPm0OR4C+eQ9viuXwsvZ/L2zotljgbBJS+l+vhpTquZjU6V3xJRqYnzKZVcBNmk79kZvenmognGrHI/NbEWUx1xNac4smX6/lG1FHrRfBFjcTZxCQZ8UmdxWMZkTyeNBf/BCOxQjfBSIvENXItcTbhYtKkOkaakyM0bJimGEFA6VtXBxJqxSnvtORwpqXM4jvBT55FU4qR3CQjUxJn8wvxOy9exWfhTzFyQ+IZ+TZVMXhZ3+KoodZLspFWx/uuIDjJRt7KUByIFCMfyrHnXZ6AtHAQUPperYVOnGCtMpYejlfaTCxp4bQ7crtAuymc/GTFaS9rZyn11XpJno57WjgrTOGUmmZy2TSTW6aZNJnCOSN8aeGkm8L/8btuCidG5AuOyxOQORMElL7XT4ADvztO++v3TYIw8wyGZM7g15kzaMycwZfmGTSLV/HZPIN1Iq7ki4vW68fJkvU69XvqRYtlTMVH1vjM5aSl00FA6cs+DiqwZNv5aW8a21rLz7LtFKrp9tSLFlsxhf4i/5fTueFy0vJpIKD05dhBDVtq+CanhhVvHKW/K9q5dh7faufFnBr+tyvNnnrRYs9P5wlJY6qG1eCqqSCg9O2ogW5RTdOOat7L6mLLXPhFXOL1oNVTL1rsV1PxE/krp2pYDf5qMggofbuqwRW8XcVQNc2d1QS5qtFTL5omYAqxIn/NZA0XwZcngYDS51hmuoDCjjsyp4nP7xzD6qpGT71osZcmYRH5L03WsBpcNxEElL59x0ADDipz91aSpyW/p15ctfXj0WdNpGXdRFpffVbD7fBvngEBpe9AJWjBw8pV68UVQ0e/30ygWOSun6BxNfjb8SCg9B06ClrwsHLVenHFXhvHGpH32jhubJygcTW4cRwIKH3WCtCCh5Wr1ktPR37DWFZvHEeblDuWpk2jNK4GN40BAaWv5AhowcPKdfSyZWTPq8EN49Fnj6FIzmnLHsOf5PfvaZqALaNpygmD3AnOTdGyMprKy8FVKPW05JWVOW9YNoTxE9GHhNG05oSRvzmMmE2j8NkVwmOivy0j8c8JIzYnDMuWMFoEd8t47mweTXjuaDzkvOatoRpWg9tH81nuaMgZ6Xxud7SM85Vl4CqUelryKkudT3DeDMNX9LF9IuSOAfG+W4yBjctgbTltL9d1bI9tH80hSWMUL7g8ATtHUrtzJOwIdT74qCnFKnZbXYVST0tetY2CzgkI5VnRx7ZF8FsbZL8K2+JhxzTYORbeHAe5xg5f9oYOjmLFuk0ayyhihMbOkV0/VvsH2zWC3N2hsDuULIevvoS0Ohu4CqWelrxaGymOvN0j+LXoY8dy2HRcI+x8KjTeHoWP0NgVyn/rXLV3h2N8dzi8G+Lcrj5Vys9PFnPnZAm4AqWeqzkni7ndUMi/Kfo4JfrYtQN2VmvDm9XclA5mCI8JjT3DNawG3x9K/30h3Nk7jLv7n8bD4T9dxDv/UQyuQKnnas7pYucNy/uheO4LoW3fSNhbDnuPaURlx+bqB6E8sS8E9g7TsBoUtv9pDu5/GvYHd3yXhH1cjOcfDnPjj0XQE3QKc4X/hyKa/rPAOdkfBJMr6h9I1HYT1YkKPhE6B0Lwk8fh+mpQ2IfBBOUF054XxM33hzpPy0+sLP3kMPQEB1/KcYH/J6vzL20HA3kqL4hbecFQ/B7YjvQK0qP7Q0HEfhgMHwZrWA06LH8oZZYgyB/q3Aglix+csbL/rBW6Q6eITqfriXumkA+EroNvCcIi6haM5HhVGXerykAj7lbJ/yZxaOUP1bAadJh1MN7WITRZh0DhUKIc/t/v4oefFVB4oRC6QqdIx/96uuRdKMAi9BzcgiFEi3rWQG5Zh2Kot5HbYAMtqJefEBUEo7cG0lIYSGt+kMbbYYeVBGAuCYSSwVwrHUKIco1/sYDllyzcuVQA96NTQKfTqcUvFXD7YiEvKPcOigIZLuqIesWBfCx858v50R+LqHLlOiLhMMfEhIo1QUkgxZLWYI2rQaUJobIAisoCoCyAv5UH3rvj8/VBnrqSzytX8vmvKxZuXbHAF/nUKjlfWKiT/TclXj6v/I/i506YbTBBpf78XarjT4tcb7ljEs4Vsv2slbZzVlDDWSt3z1nZ6jibSgNYIzRKA7hWGqBxNXi/lfvwoyN+lFf4Q4Uf3x7x5zndQ7QKfxYe8eM7Sd+f0nI/oir8aTviT/sRv45JEHa5kMDPLWy7VMCfL1m4eamApksWPrlkYdOl/I7vvDhgFX6sFvmShh/hD6VJuwc/PuZLWZUvCBzz5YNK3wf7g0SVHrcqA/sdmlUGbGKypZgBc5UvbXItq92359VgpT/6Kl+KZL02oaF7mJav4xG7nnU1elrsBrAbuFNj4GC1gedOGPBsdOfR7vJFXPBqDCysMZAn8iUdPc12A2uzdPfuKNt9WVBj4DtHLbueQyLXUcsewOPH9fjbDcTW6LEo+rpWo39IR17Nan0IOOHD4RN62mr10FuI/BM+WIWeaiExCT64n/BhX62euz1q+tBa68Nbdo8H/M67anV6vBq8WNPgxZEGL640enO70Ru6wW3Ba/CmvMGL1R8Z7n1G2J2d9mZAoxcrG70pa/DicoM3txq9aGrw4kyjN6UnvUhv1Pfyp67P+qzP+qzPdP8/7f8ALd8ygySW7sQAAAAASUVORK5CYII=;" vertex="1" parent="1">
          <mxGeometry width="64" height="64" as="geometry" />
        </mxCell>
        <mxCell id="_T2XmVHFqXw21ZcmqbBh-524" value="" style="shape=image;verticalLabelPosition=bottom;labelBackgroundColor=default;verticalAlign=top;aspect=fixed;imageAspect=0;image=data:image/png,iVBORw0KGgoAAAANSUhEUgAAAEAAAABACAYAAACqaXHeAAAACXBIWXMAAAsTAAALEwEAmpwYAAAOWklEQVR4nO2ae1hU57XGx+bpaRPT/HHSnvQUFLnMcBGFiKLiLca7OCoqEQGR+wBDatR46ZMYrE3aaFBRMUYTE01UIgMjMICIwCg3o6enzWkatcZTjTE5MadNjHgDhN95vs0eZms3MBvtX4f1PO8zM2u9613r+/aePfv79uh0fdZnfdZnfdZn2i2SRwZkMs7NTLa7mZPumVx1y6TF3Uy9Gt3dTIMUz+Sq4Ltl8saADMYKHVfKeSxlkJuZ1W6ZVLhl8qVbJrfdzdxwN3PW3Uy5uxmz2/O46/7Z5r6MRwdmsmqgmaseZlCD6gC64AqdgRms9FjCj9XyvNMZMDCDAx5m7nal0YkMWj3M7B5g5hf/lMF7ZrDAM43LXukg4JnOea80srzSCfcwMcjhV8t1xGReuGc666R82e+VzudeJiLuyUkjyjONJqlWGne80tkvehiUgYeYsKdW0H9QGr5eGSzySueQZzrNcl/XPdMxPryRZ/EDg4nXDGm0G9LAkMYpfSrjdTr6KWlyTHUC1GP080lngt7EaTnerjexXvgNJpZ11jNR4JXKwJ7a9EnF25CGVc5p05vIfCiD908lz98E/qnc8TORIXxqVIljUp+A7mJCzy8Vs5+JZomXRr2/iXb/VNr8U/mlg7a6jog1dZSuqeOsw7emnvPCJ2I6Og6Iv4lVcm6bb+oDngmBKbwWmAKByXwfkMyzXQxOH5iCTfAGJ9OqxhF+SSeFkoAkfNQ4Q1KZJOrIPAansNQR21bDlm01IKO5019Nq8O/tYbNnfVSWOXo2y+Vf+/V4IOTWRCcTHtQEi1BSYxR4wxNYl5wMteDk0F6TeRFNV5QMiuDk2hy8IISmauql8pYUU/wgpKd14SCCvzyj/KV5ShYjjonIL+CVuHLr+Cq5QiD7+v/sFxvl+bBj4rk0WGJXA5JhJAE52motOGJzB+WQKvMOTAqiX/tTnPEYp4clkCe4Iu8YQn3XvQcNiyBF2TNz5fZyVl5Er3wN5TgV1/CV3U25wQ0lNBab+NqXXHH4Jc14rOigQ3i6/B0Ej4hCbSIWkFxuGmagNAEVoUmQGg8jV0MxjAiniaJk8ArmrTjWS/yRsRzfWR8x+DuNfqFxnNKcDJyYXsNV3KOd/AuFBJ4oQCbg/nXAmwXrfiL97l2fHKr+SK3BrZXdUzuiHgsQmd4PBkuNxgZySNhS7gatgRGLWayGidsCRUiHhbH+1oG35kfxwGRPzqOsi7iU0V8SiqUlkNZOV+XlxPQlZ7Nhr6snCtlHVxKyzp0w5YQI/dZ6nJz42MYNy4Oxi3mz2rxsUsIkeJxfDtpMU/qemETFvHTsYv5TuiELSFYjTMujk9FvGQPnDkMnx52Hvn77VMrJYLTCSufC39YDL5yr+dcby6W7GdiYUIMr3cR3yTiz8Q4r7q9sQmx5Mg6b6jGY9ggxWPZ2OsakTwuazS5nDQpmpOTY2ByDJPU4pOjOS3iz0YzsbeNSToxTBI6k6L5SC3+bCxTpD6iaehtjekxPCHX+N7lpKnRfDMtGqbGqv9eT4vm7yLe29O/s7lIfiZ0pi3ib2rxGQsxiPisZFhbB2trKe5Ka20dNonjQC2XpLEswk+qEc0ZlxubEUXzzCgQp49afOZCWkQ8JJUf6h7AIiP5F6Ej6qnFZ8/mJyI+Kwb2VvL1nqquL4K7j2HYU8WXe6pA4J1jlEu9RhEr1Vio4SI4eyEIdBU3PsdXEifqwVZd4ZG4ybWu9NRLbVHH4JfXYljZQJEj/mIDxatOdvwM2kvwq7bxVU0p2G0skHu1iHzjQtJdbiwiEgS6iX8k4vOeU/+J1FBnilyr0ZVeso9h2GznyuYa5+32ZjvNm+1c3VzdcSN0sQC/i4XkAP3mzUM/dwEtEZG0RkZquBFasAAEuomvF/H589muZcAqOrmyzrqeesk7hiHvKF/mVcLBo84JOFhJs/DlVXL14D23wvSbP59iWf8tTY1FzQMBpW9pIzs64/MZGjWP9qgImqKMPKXrhUVG8nMpfx7t0XMYolZH2Yu9lJzjpSDB5pwAeynNDr/dxlaHf+E81ki5EdwUtTQ1FxMBAkrfiga+z/o9jyk4hYITHcGh+/cFejb6Rc/FItfJ76zxMf2XN3JdrRdxSp8tZMFfrFT8pZC/OuLnCrkgfOcPM19wJO0IVkfPpU3OvR6n5fQXFjcXBHQKW90Aqxucy9O4uXgvnsM1iTuH37k+CfQTfLnGt7FGPBU1Vog6ar0smcOgnpTj56GPm0OR4C+eQ9viuXwsvZ/L2zotljgbBJS+l+vhpTquZjU6V3xJRqYnzKZVcBNmk79kZvenmognGrHI/NbEWUx1xNac4smX6/lG1FHrRfBFjcTZxCQZ8UmdxWMZkTyeNBf/BCOxQjfBSIvENXItcTbhYtKkOkaakyM0bJimGEFA6VtXBxJqxSnvtORwpqXM4jvBT55FU4qR3CQjUxJn8wvxOy9exWfhTzFyQ+IZ+TZVMXhZ3+KoodZLspFWx/uuIDjJRt7KUByIFCMfyrHnXZ6AtHAQUPperYVOnGCtMpYejlfaTCxp4bQ7crtAuymc/GTFaS9rZyn11XpJno57WjgrTOGUmmZy2TSTW6aZNJnCOSN8aeGkm8L/8btuCidG5AuOyxOQORMElL7XT4ADvztO++v3TYIw8wyGZM7g15kzaMycwZfmGTSLV/HZPIN1Iq7ki4vW68fJkvU69XvqRYtlTMVH1vjM5aSl00FA6cs+DiqwZNv5aW8a21rLz7LtFKrp9tSLFlsxhf4i/5fTueFy0vJpIKD05dhBDVtq+CanhhVvHKW/K9q5dh7faufFnBr+tyvNnnrRYs9P5wlJY6qG1eCqqSCg9O2ogW5RTdOOat7L6mLLXPhFXOL1oNVTL1rsV1PxE/krp2pYDf5qMggofbuqwRW8XcVQNc2d1QS5qtFTL5omYAqxIn/NZA0XwZcngYDS51hmuoDCjjsyp4nP7xzD6qpGT71osZcmYRH5L03WsBpcNxEElL59x0ADDipz91aSpyW/p15ctfXj0WdNpGXdRFpffVbD7fBvngEBpe9AJWjBw8pV68UVQ0e/30ygWOSun6BxNfjb8SCg9B06ClrwsHLVenHFXhvHGpH32jhubJygcTW4cRwIKH3WCtCCh5Wr1ktPR37DWFZvHEeblDuWpk2jNK4GN40BAaWv5AhowcPKdfSyZWTPq8EN49Fnj6FIzmnLHsOf5PfvaZqALaNpygmD3AnOTdGyMprKy8FVKPW05JWVOW9YNoTxE9GHhNG05oSRvzmMmE2j8NkVwmOivy0j8c8JIzYnDMuWMFoEd8t47mweTXjuaDzkvOatoRpWg9tH81nuaMgZ6Xxud7SM85Vl4CqUelryKkudT3DeDMNX9LF9IuSOAfG+W4yBjctgbTltL9d1bI9tH80hSWMUL7g8ATtHUrtzJOwIdT74qCnFKnZbXYVST0tetY2CzgkI5VnRx7ZF8FsbZL8K2+JhxzTYORbeHAe5xg5f9oYOjmLFuk0ayyhihMbOkV0/VvsH2zWC3N2hsDuULIevvoS0Ohu4CqWelrxaGymOvN0j+LXoY8dy2HRcI+x8KjTeHoWP0NgVyn/rXLV3h2N8dzi8G+Lcrj5Vys9PFnPnZAm4AqWeqzkni7ndUMi/Kfo4JfrYtQN2VmvDm9XclA5mCI8JjT3DNawG3x9K/30h3Nk7jLv7n8bD4T9dxDv/UQyuQKnnas7pYucNy/uheO4LoW3fSNhbDnuPaURlx+bqB6E8sS8E9g7TsBoUtv9pDu5/GvYHd3yXhH1cjOcfDnPjj0XQE3QKc4X/hyKa/rPAOdkfBJMr6h9I1HYT1YkKPhE6B0Lwk8fh+mpQ2IfBBOUF054XxM33hzpPy0+sLP3kMPQEB1/KcYH/J6vzL20HA3kqL4hbecFQ/B7YjvQK0qP7Q0HEfhgMHwZrWA06LH8oZZYgyB/q3Aglix+csbL/rBW6Q6eITqfriXumkA+EroNvCcIi6haM5HhVGXerykAj7lbJ/yZxaOUP1bAadJh1MN7WITRZh0DhUKIc/t/v4oefFVB4oRC6QqdIx/96uuRdKMAi9BzcgiFEi3rWQG5Zh2Kot5HbYAMtqJefEBUEo7cG0lIYSGt+kMbbYYeVBGAuCYSSwVwrHUKIco1/sYDllyzcuVQA96NTQKfTqcUvFXD7YiEvKPcOigIZLuqIesWBfCx858v50R+LqHLlOiLhMMfEhIo1QUkgxZLWYI2rQaUJobIAisoCoCyAv5UH3rvj8/VBnrqSzytX8vmvKxZuXbHAF/nUKjlfWKiT/TclXj6v/I/i506YbTBBpf78XarjT4tcb7ljEs4Vsv2slbZzVlDDWSt3z1nZ6jibSgNYIzRKA7hWGqBxNXi/lfvwoyN+lFf4Q4Uf3x7x5zndQ7QKfxYe8eM7Sd+f0nI/oir8aTviT/sRv45JEHa5kMDPLWy7VMCfL1m4eamApksWPrlkYdOl/I7vvDhgFX6sFvmShh/hD6VJuwc/PuZLWZUvCBzz5YNK3wf7g0SVHrcqA/sdmlUGbGKypZgBc5UvbXItq92359VgpT/6Kl+KZL02oaF7mJav4xG7nnU1elrsBrAbuFNj4GC1gedOGPBsdOfR7vJFXPBqDCysMZAn8iUdPc12A2uzdPfuKNt9WVBj4DtHLbueQyLXUcsewOPH9fjbDcTW6LEo+rpWo39IR17Nan0IOOHD4RN62mr10FuI/BM+WIWeaiExCT64n/BhX62euz1q+tBa68Nbdo8H/M67anV6vBq8WNPgxZEGL640enO70Ru6wW3Ba/CmvMGL1R8Z7n1G2J2d9mZAoxcrG70pa/DicoM3txq9aGrw4kyjN6UnvUhv1Pfyp67P+qzP+qzPdP8/7f8ALd8ygySW7sQAAAAASUVORK5CYII=;" vertex="1" parent="1">
          <mxGeometry width="64" height="64" as="geometry" />
        </mxCell>
        <mxCell id="_T2XmVHFqXw21ZcmqbBh-525" value="" style="shape=image;verticalLabelPosition=bottom;labelBackgroundColor=default;verticalAlign=top;aspect=fixed;imageAspect=0;image=data:image/png,iVBORw0KGgoAAAANSUhEUgAAAEAAAABACAYAAACqaXHeAAAACXBIWXMAAAsTAAALEwEAmpwYAAAOWklEQVR4nO2ae1hU57XGx+bpaRPT/HHSnvQUFLnMcBGFiKLiLca7OCoqEQGR+wBDatR46ZMYrE3aaFBRMUYTE01UIgMjMICIwCg3o6enzWkatcZTjTE5MadNjHgDhN95vs0eZms3MBvtX4f1PO8zM2u9613r+/aePfv79uh0fdZnfdZnfdZn2i2SRwZkMs7NTLa7mZPumVx1y6TF3Uy9Gt3dTIMUz+Sq4Ltl8saADMYKHVfKeSxlkJuZ1W6ZVLhl8qVbJrfdzdxwN3PW3Uy5uxmz2/O46/7Z5r6MRwdmsmqgmaseZlCD6gC64AqdgRms9FjCj9XyvNMZMDCDAx5m7nal0YkMWj3M7B5g5hf/lMF7ZrDAM43LXukg4JnOea80srzSCfcwMcjhV8t1xGReuGc666R82e+VzudeJiLuyUkjyjONJqlWGne80tkvehiUgYeYsKdW0H9QGr5eGSzySueQZzrNcl/XPdMxPryRZ/EDg4nXDGm0G9LAkMYpfSrjdTr6KWlyTHUC1GP080lngt7EaTnerjexXvgNJpZ11jNR4JXKwJ7a9EnF25CGVc5p05vIfCiD908lz98E/qnc8TORIXxqVIljUp+A7mJCzy8Vs5+JZomXRr2/iXb/VNr8U/mlg7a6jog1dZSuqeOsw7emnvPCJ2I6Og6Iv4lVcm6bb+oDngmBKbwWmAKByXwfkMyzXQxOH5iCTfAGJ9OqxhF+SSeFkoAkfNQ4Q1KZJOrIPAansNQR21bDlm01IKO5019Nq8O/tYbNnfVSWOXo2y+Vf+/V4IOTWRCcTHtQEi1BSYxR4wxNYl5wMteDk0F6TeRFNV5QMiuDk2hy8IISmauql8pYUU/wgpKd14SCCvzyj/KV5ShYjjonIL+CVuHLr+Cq5QiD7+v/sFxvl+bBj4rk0WGJXA5JhJAE52motOGJzB+WQKvMOTAqiX/tTnPEYp4clkCe4Iu8YQn3XvQcNiyBF2TNz5fZyVl5Er3wN5TgV1/CV3U25wQ0lNBab+NqXXHH4Jc14rOigQ3i6/B0Ej4hCbSIWkFxuGmagNAEVoUmQGg8jV0MxjAiniaJk8ArmrTjWS/yRsRzfWR8x+DuNfqFxnNKcDJyYXsNV3KOd/AuFBJ4oQCbg/nXAmwXrfiL97l2fHKr+SK3BrZXdUzuiHgsQmd4PBkuNxgZySNhS7gatgRGLWayGidsCRUiHhbH+1oG35kfxwGRPzqOsi7iU0V8SiqUlkNZOV+XlxPQlZ7Nhr6snCtlHVxKyzp0w5YQI/dZ6nJz42MYNy4Oxi3mz2rxsUsIkeJxfDtpMU/qemETFvHTsYv5TuiELSFYjTMujk9FvGQPnDkMnx52Hvn77VMrJYLTCSufC39YDL5yr+dcby6W7GdiYUIMr3cR3yTiz8Q4r7q9sQmx5Mg6b6jGY9ggxWPZ2OsakTwuazS5nDQpmpOTY2ByDJPU4pOjOS3iz0YzsbeNSToxTBI6k6L5SC3+bCxTpD6iaehtjekxPCHX+N7lpKnRfDMtGqbGqv9eT4vm7yLe29O/s7lIfiZ0pi3ib2rxGQsxiPisZFhbB2trKe5Ka20dNonjQC2XpLEswk+qEc0ZlxubEUXzzCgQp49afOZCWkQ8JJUf6h7AIiP5F6Ej6qnFZ8/mJyI+Kwb2VvL1nqquL4K7j2HYU8WXe6pA4J1jlEu9RhEr1Vio4SI4eyEIdBU3PsdXEifqwVZd4ZG4ybWu9NRLbVHH4JfXYljZQJEj/mIDxatOdvwM2kvwq7bxVU0p2G0skHu1iHzjQtJdbiwiEgS6iX8k4vOeU/+J1FBnilyr0ZVeso9h2GznyuYa5+32ZjvNm+1c3VzdcSN0sQC/i4XkAP3mzUM/dwEtEZG0RkZquBFasAAEuomvF/H589muZcAqOrmyzrqeesk7hiHvKF/mVcLBo84JOFhJs/DlVXL14D23wvSbP59iWf8tTY1FzQMBpW9pIzs64/MZGjWP9qgImqKMPKXrhUVG8nMpfx7t0XMYolZH2Yu9lJzjpSDB5pwAeynNDr/dxlaHf+E81ki5EdwUtTQ1FxMBAkrfiga+z/o9jyk4hYITHcGh+/cFejb6Rc/FItfJ76zxMf2XN3JdrRdxSp8tZMFfrFT8pZC/OuLnCrkgfOcPM19wJO0IVkfPpU3OvR6n5fQXFjcXBHQKW90Aqxucy9O4uXgvnsM1iTuH37k+CfQTfLnGt7FGPBU1Vog6ar0smcOgnpTj56GPm0OR4C+eQ9viuXwsvZ/L2zotljgbBJS+l+vhpTquZjU6V3xJRqYnzKZVcBNmk79kZvenmognGrHI/NbEWUx1xNac4smX6/lG1FHrRfBFjcTZxCQZ8UmdxWMZkTyeNBf/BCOxQjfBSIvENXItcTbhYtKkOkaakyM0bJimGEFA6VtXBxJqxSnvtORwpqXM4jvBT55FU4qR3CQjUxJn8wvxOy9exWfhTzFyQ+IZ+TZVMXhZ3+KoodZLspFWx/uuIDjJRt7KUByIFCMfyrHnXZ6AtHAQUPperYVOnGCtMpYejlfaTCxp4bQ7crtAuymc/GTFaS9rZyn11XpJno57WjgrTOGUmmZy2TSTW6aZNJnCOSN8aeGkm8L/8btuCidG5AuOyxOQORMElL7XT4ADvztO++v3TYIw8wyGZM7g15kzaMycwZfmGTSLV/HZPIN1Iq7ki4vW68fJkvU69XvqRYtlTMVH1vjM5aSl00FA6cs+DiqwZNv5aW8a21rLz7LtFKrp9tSLFlsxhf4i/5fTueFy0vJpIKD05dhBDVtq+CanhhVvHKW/K9q5dh7faufFnBr+tyvNnnrRYs9P5wlJY6qG1eCqqSCg9O2ogW5RTdOOat7L6mLLXPhFXOL1oNVTL1rsV1PxE/krp2pYDf5qMggofbuqwRW8XcVQNc2d1QS5qtFTL5omYAqxIn/NZA0XwZcngYDS51hmuoDCjjsyp4nP7xzD6qpGT71osZcmYRH5L03WsBpcNxEElL59x0ADDipz91aSpyW/p15ctfXj0WdNpGXdRFpffVbD7fBvngEBpe9AJWjBw8pV68UVQ0e/30ygWOSun6BxNfjb8SCg9B06ClrwsHLVenHFXhvHGpH32jhubJygcTW4cRwIKH3WCtCCh5Wr1ktPR37DWFZvHEeblDuWpk2jNK4GN40BAaWv5AhowcPKdfSyZWTPq8EN49Fnj6FIzmnLHsOf5PfvaZqALaNpygmD3AnOTdGyMprKy8FVKPW05JWVOW9YNoTxE9GHhNG05oSRvzmMmE2j8NkVwmOivy0j8c8JIzYnDMuWMFoEd8t47mweTXjuaDzkvOatoRpWg9tH81nuaMgZ6Xxud7SM85Vl4CqUelryKkudT3DeDMNX9LF9IuSOAfG+W4yBjctgbTltL9d1bI9tH80hSWMUL7g8ATtHUrtzJOwIdT74qCnFKnZbXYVST0tetY2CzgkI5VnRx7ZF8FsbZL8K2+JhxzTYORbeHAe5xg5f9oYOjmLFuk0ayyhihMbOkV0/VvsH2zWC3N2hsDuULIevvoS0Ohu4CqWelrxaGymOvN0j+LXoY8dy2HRcI+x8KjTeHoWP0NgVyn/rXLV3h2N8dzi8G+Lcrj5Vys9PFnPnZAm4AqWeqzkni7ndUMi/Kfo4JfrYtQN2VmvDm9XclA5mCI8JjT3DNawG3x9K/30h3Nk7jLv7n8bD4T9dxDv/UQyuQKnnas7pYucNy/uheO4LoW3fSNhbDnuPaURlx+bqB6E8sS8E9g7TsBoUtv9pDu5/GvYHd3yXhH1cjOcfDnPjj0XQE3QKc4X/hyKa/rPAOdkfBJMr6h9I1HYT1YkKPhE6B0Lwk8fh+mpQ2IfBBOUF054XxM33hzpPy0+sLP3kMPQEB1/KcYH/J6vzL20HA3kqL4hbecFQ/B7YjvQK0qP7Q0HEfhgMHwZrWA06LH8oZZYgyB/q3Aglix+csbL/rBW6Q6eITqfriXumkA+EroNvCcIi6haM5HhVGXerykAj7lbJ/yZxaOUP1bAadJh1MN7WITRZh0DhUKIc/t/v4oefFVB4oRC6QqdIx/96uuRdKMAi9BzcgiFEi3rWQG5Zh2Kot5HbYAMtqJefEBUEo7cG0lIYSGt+kMbbYYeVBGAuCYSSwVwrHUKIco1/sYDllyzcuVQA96NTQKfTqcUvFXD7YiEvKPcOigIZLuqIesWBfCx858v50R+LqHLlOiLhMMfEhIo1QUkgxZLWYI2rQaUJobIAisoCoCyAv5UH3rvj8/VBnrqSzytX8vmvKxZuXbHAF/nUKjlfWKiT/TclXj6v/I/i506YbTBBpf78XarjT4tcb7ljEs4Vsv2slbZzVlDDWSt3z1nZ6jibSgNYIzRKA7hWGqBxNXi/lfvwoyN+lFf4Q4Uf3x7x5zndQ7QKfxYe8eM7Sd+f0nI/oir8aTviT/sRv45JEHa5kMDPLWy7VMCfL1m4eamApksWPrlkYdOl/I7vvDhgFX6sFvmShh/hD6VJuwc/PuZLWZUvCBzz5YNK3wf7g0SVHrcqA/sdmlUGbGKypZgBc5UvbXItq92359VgpT/6Kl+KZL02oaF7mJav4xG7nnU1elrsBrAbuFNj4GC1gedOGPBsdOfR7vJFXPBqDCysMZAn8iUdPc12A2uzdPfuKNt9WVBj4DtHLbueQyLXUcsewOPH9fjbDcTW6LEo+rpWo39IR17Nan0IOOHD4RN62mr10FuI/BM+WIWeaiExCT64n/BhX62euz1q+tBa68Nbdo8H/M67anV6vBq8WNPgxZEGL640enO70Ru6wW3Ba/CmvMGL1R8Z7n1G2J2d9mZAoxcrG70pa/DicoM3txq9aGrw4kyjN6UnvUhv1Pfyp67P+qzP+qzPdP8/7f8ALd8ygySW7sQAAAAASUVORK5CYII=;" vertex="1" parent="1">
          <mxGeometry width="64" height="64" as="geometry" />
        </mxCell>
        <mxCell id="_T2XmVHFqXw21ZcmqbBh-526" value="" style="shape=image;verticalLabelPosition=bottom;labelBackgroundColor=default;verticalAlign=top;aspect=fixed;imageAspect=0;image=data:image/png,iVBORw0KGgoAAAANSUhEUgAAADIAAAA0CAIAAABHBPz7AAAFzUlEQVRYCc2Z+08URxzA+VcWzsQcTVpiYmnShialxOXKS8BgS01LA1obMDGAsZo2tKYFH2iiplZTFW1Tm5ZESPilWrGUFE+E9sTy8sEj7s49uePuOPYxu9Ose87t7u3u7T00bOaH787Mzvdz3/l+v/O4PLQhnzxBECCE/IZ5IISCIOQxDBOLxaLRaGQDPNFoNBaLMQyTt9Hm0O/3h0KhDYe1uLgIAMgNFu2FF6+vNXetlDR5inZ47JXu4kZPXXug69zqH06GYUXrc+Jyuebn57PF8gSEg6dWbQ43QQKj8lqt5+vvw8AHrcCNjo66XK6ssCamueJGD0GCggp6X09wcHh9iYZrMZHnkS8ojLnY432Rt5t8Mu6mSnfPxXCMSWG5GzduOJ3OzLGG7zKbKiUj7Tq0sgzMLPHgEbevJ1iwjSJIUPKJd+ohZ2K2oaGh0dHRDLH+mmQ3V0lMh0+vQsFES6LJNcc59voJEmyucg8Oryca1NLAwMDIyEgmWH+7WPszOzV0BqCZmdQKEWI58fCZVWnSt1E/Da1pm5+9Z4g1/oAtrKGlod+jKK8Wqna/v649oKsPV57/LZpfTtlI6paTwZVYyARrcoazV0tMBAk+PRLEY2Ghrj1Q35ECCyF05ucIQQJ7NT39mMffykLaWPfnuVdrpbiTy9CIoX9oNOmasKM3SJCgtMXH8arYTA/rv8dc0Y4EE0GCh8vaH6qhwa+6JuR4sWy3lDu++yWKeyKE0sCaW+SL6lVMBAlYTvUrlUNblO/cZ/PLqcIaWplprWI9Wua37NTJ4JG1BNbRS+HCGvrY5bBFINyt9RtpKk/0RXCNJawFCsp5HLsUFoA/EYb27VIc2KtpPLpFYWKaI0hQ3OjBiSY11hKAxbu8mEMj/HkvEd7HLoft2+njih9tEQshJOfY289HS4FFeeFbH5ktwL1XEpbXhdANwOSex/ukZIHn0QwL+GFJk9bHNdaqaPUn61DW6AagsoMsD48z8sIqvxpieQICXvY1KJrXf2bNFt1kAoRQcnDQXkiQ4I1dXjOsGCNWtEoLqpXS1qOT6HVpcGVycIQiAkGCLTuBIZYoorZuKWItlvxy6u4Ui1VaEZKDYy0mEiQo2uExxOq/GbMIhLuV7fFoVg8rcMo+M094ggRlu336WAwrvvmhYTrAHMlCR29IqSZdeXB4nSBBW3fcH7Quf/H6WrJKizVnr6nWNSVZyjTR3LVCkOBCf3wELZac1ixyaLrll1NGZOZpYglAGyntvejnWzcV1pOn0gRnWTp6Q2n5Gc+juv0BggTtJxJuoMK60B/Nkkn+vGy3z2ktNiFEB09JG+iieo8vmDgOqLA6T4ZygkWQIL+causOTs6YZdplAOvaJTvZHO4xlyrFqLDqO6ROuS2Ovf4TfZHhcQb4YCgixBhxdoEfvL3e0rViI6XDmc3hvnknsd7rJIgS01U5t7jyaLpM2t3pO83xs++LIEge0+Zw/z6mtZOOtco/e3lYJkxaazV+nnvfSjaSkT8p06/K5XuvSHuxF13M7aQzibec0l7shRYrTNpJXGdFzTEwt4gWmbRYCKEj58O5RcGjWWfSwVqiYUFF/H4Bj5i9YJSflG6ulFUuLzecvJpjx0/LTjouL1dJ9wJ7Uhx4rNsvAybVJD71wLPXoh9/sVLa4pPvHa3rNuqZ7tzheYxP4smrEfN7YiPFJvWbq3TWYKzYXIhjvf6BztHZ5nAXZ7SvJ0iwtQFMTJvtaixhLQP47Q+rr9Spcmlpiy8UEdp60jicycZ7/4Afb3/N1Ru1qiJxiYbKk3TTl/GLxtv3mIZOS8tlaYvPaFNgRKBbr8JCCM0t8vKdNkGCc7+qTjL/znJHL4UrWv3y3Tr2qoIK+t1m31fnVidnODFx26WrzmqlFgshdOi0tLneVOlW3l0px2NYkfZC1xznnGIXKIgvpZR9spR1sJYA3NoATv2Y4oYoS8Xmn+tgmX/wclrlP1f+B1Yl9oQ1bpaZAAAAAElFTkSuQmCC;" vertex="1" parent="1">
          <mxGeometry x="-295.81" y="-618.7" width="50" height="52" as="geometry" />
        </mxCell>
        <mxCell id="_T2XmVHFqXw21ZcmqbBh-527" value="" style="shape=image;verticalLabelPosition=bottom;labelBackgroundColor=default;verticalAlign=top;aspect=fixed;imageAspect=0;image=data:image/png,iVBORw0KGgoAAAANSUhEUgAAAC0AAAA1CAIAAABa/fU7AAACeElEQVRYCe1Yz0vjQBTuf6Fede3RehLc9VKPXRRsvQgr6x48Fq13L3VZ29V/wEL1b1gkyloERakUehVPu9f+QKkxKaam7XgISPryJnkzzbIREnqY9/rmfd988yaTmYgZjCeiBeDRdT3CyM+L2c8eaFPLjZE4/MVSjZ2C9mL2yclgoACPnYLmZGD3fC9oMD3ZFuCBKmHnMbXcIOPCQAEedkheG6Yn2++QRywFyxOoMp1qkscPAwX0OLkyXKjEUo3TawOmJ9sCPBhjt39MoMGbeffXJIMigSQe3R47vTbSOTW6wJ2a6GJzM6/+Lhs9qZeIN4/zSufT2sPbuD0bc18fLqodZMiuLg8eu0V9dL7miQ0CxuK1n0e6Ky78043HblEHAEJm/lCACpfHRbUjoYSd6Oh87bxCnSCcR7fHZlbu7Unl2rOrzW4PTgFq4zyOLw05YGevkyvSSwXnkf7x6Mwo59nIq6gAwInzmF1tyqE6e338cg8gURPnMZ6oOzPKeSY+11Fg4MR5yEHyegFI1Aw2j0n/5iW6QPpIw/VI51SeyKL+odaL1u6vbfuwdL9tP2pt0v6L62GVkjV0tKx8d74fHqIFYY+ny+athz2vaDvkMXj0DfUI9eCeaEbipJ3FqqFw3Q6uJW89BuP/lRVsHu3n/nrWh0+Q9azafh5i39/cexLdSnjxW/tPlLnE58XlfoGHx/NHF0mXRDgPXlI5v7wecni8XiEP8d0u2PXh4/n2Q2KI8+1SpsUrOlF/MtOSr9Ozsm/3MKUb0tUUXh+MsSEv6SzZckXqVR2XB2PsrGwkMy2JWhlP1JOZFlEJa9YiiqL8+q+PoiilUukVKkAClDN1figAAAAASUVORK5CYII=;" vertex="1" parent="1">
          <mxGeometry x="-289.35" y="-764.94" width="37.09" height="43.69" as="geometry" />
        </mxCell>
        <mxCell id="_T2XmVHFqXw21ZcmqbBh-528" value="" style="shape=image;verticalLabelPosition=bottom;labelBackgroundColor=default;verticalAlign=top;aspect=fixed;imageAspect=0;image=data:image/png,iVBORw0KGgoAAAANSUhEUgAAADYAAAAyCAIAAACYtr+cAAAGM0lEQVRoBe2Z/W8TZRzA918U7JQEyBITJiA/oIA/XFM2s4WtOtyyiUyHEOJiM1jNwoiCGojLimZDedFlwMhAFIZjniiFgFshLhhIMRidQycDrtdeX3Ztr1179zzm6bNd746767XbgB+8NMtzz57n+X7u+/Z877kCQRCSySR8Iq+xsTGKogoEQUgkEk8kIfR4PCMjIwU8z3Mcp4MYiQFbU/ClhgATEnSGzcW/3G63x+MpSKVS0WhUS8BkEryyLWQiaBNBlzcGkymtgXPS73K5hoeHEWIkEtGS0OxkMR/+u/ug5kitFWbST5Kk2+3WQzz+PSflMxH0PAv149VH57j9/f2Dg4OaiKPj/IJSnwLRRNDFVXQ4AmaiG+Nz9RABgLam4MN8uGdHB2tczExG6iGeuRjX4jMRdOFa6p/7/ExkG5yriZji4fJqRgfRRNDvffooFKmJ2HdJT4UYfWGZNxKbc4/URCzdKvPCd/ZMDP+WXFbjV+j1zMW4QXvlPUwdcdzLS1HmWai/7yG3q7TLuE0Evd0557ZWRzzSL8uFJVuDEEIvIzxFUFJ0E0FbGvx5q8fgRHXEN98PS1FaO5GqekkZNx6wrPoxIb74hixd9wygCqO1U7YNYsRF5V6Dysh7mLoWF5Z5pVo8dwVtd5t3y1SLB6yoY/KWbXCiOqLC58ghhPiW3PoYsdKO3HROL3XExXItnvgBZZamdhVD7/lqzqsedcQXNsh8sa0blZKdJ2JS6+P2L7eUrxO/30mdPB/fuZ+1bQut2sAsr2ZW1DFr6gM1jmBrJztwJRGcyK0oVkfc2Cpzu9oWZM2hG5MKxDX1ATC9uYRZ0HkitrJW9myK8fh2PkFZNwcOnIqFWEOs6oifn5QprGidHwDIxsB8eV78+jxyAABgVx9XVJEdTkH89Mu+praJrLWIOuLoXdnuYiLoO+Nod7FuDohiyhqDAoCRGKhrmXpnEP+VU8Ns9e06EAmz0+Z4KPTUESGE1Q6Z4C9PxyCEzmNRLH5RuXd0nI9yoES+lecEJx28xObXquQ1Ea/fTkrNatsWghDevpNClWKp7/L1Sa00JBWca3u7k01MKtWpiQgh3Lk/k2XMVgpHoqXBj/mMVGu5IpoIumRr4IFfFkZ6iMkUfE1i7l4SbYNRDj1lYhIssSkLszyAVKc8X8vgwgq7pR4ihJBLgNenE1C1A9kaXyfPZy94peILS32WBv+mXaEdHWz70eiR77hj5zjp80sHmwh6dX1mX82CCCHkBdjRGytcS5mtVCA8ZYIKeya0FauLt4WlvrqWUFcf5/kzlVJ7ybl6U5loxbk1jsy+mh0Rq219MwrwS8MoSiaiwGxVFo7i6iaCLmsMfnMhjl1iWu9wdJz/6Vqi+yy3tyvqcLIOJ6uV581W31//Zp7JKOKHhyImgu7oRann5181n77SHrz5R2ZLvDWS2tcTrWsJFa3LwXHbj8qObowi4vjd8vEEhLD7rHpti2s2CGEgLOw3thlKdY/bFfagwiuMImK/eTWdHff1TCVwUcD65hB201gctHVHn1E7wBAH6zSeW08/8MkyDoTQKKI77doYcW+XDHH3wQifXpYcSiytQqdn+f0WlXtvjagcuhlFvHwd+V9TGzL0R4eRX+Lfvh7kN8kU/OCLyDyLXgyJU1QbZqsPx6IYXmLDKKIAIDmUwNb87PiUFnH0RGKZ00dV8Vk7F5d5h26gXKF6GUUUJ9+l+OK0NfFpSTgCyhuVL9dZmaQDiqtoVfuKEnNDDLHC6np00LOxNcwLMJ4AZTPjq7QHH44PEQ43ckAEAOLS0NLgj3JAAHCT2juhVEM67QWlvgOnYjjOFEyK2xwQD59GpfizNv89GqX+eALs6GDN1pyL7cK1VLOTvZ9eREGjemsUcdzL42x34ZrsCJkJCYe+jVm3MEbCeUUd0340mtWyClCjiG+nbfruJyjpqF6BsDBwJdHaydY4gqs2+JdW0UXr/CtrfRX2QLOT7erjpNuu6gpanUYRi9MifUFl6tdadxb7jSLepXjj3jOLfDlsgLMrNafVjGoxp0Vnd/D/iLOhz8wHNp3PlLMhKP81pj5T4o+9DMOMjY15PB632+1yuUiS7H+sF0mSLpcLf+z9D57Bq+28ZtslAAAAAElFTkSuQmCC;" vertex="1" parent="1">
          <mxGeometry x="-223.76" y="-618.7" width="54" height="50" as="geometry" />
        </mxCell>
        <mxCell id="_T2XmVHFqXw21ZcmqbBh-529" value="" style="shape=image;verticalLabelPosition=bottom;labelBackgroundColor=default;verticalAlign=top;aspect=fixed;imageAspect=0;image=data:image/png,iVBORw0KGgoAAAANSUhEUgAAADkAAAAvCAIAAADW9fVUAAAFAklEQVRoBdWY/08bZRjA91+UjSX+sFn8yYgmc5vxhyILCaTAEoNBWMw0LlNCo5uJymRskhHjcMMwQF2mgxKyTR3yXSEsWCumGseKFrrGItlm2/vSb3fXu+td7zDNlVvbe693vV4HIw197rnnfd9Pn/d53/d5nx0bm38cxzEMs/m0vb7X19f9fv8OEYrjOJqmxcdtJTidTo/H85A1kUiQJLmtEEUYu93udDofsrIsSxCE+FpRiOC8dZL8bIjwIZyicYEGc3NzDocjgxXHcTWdrq6xrV2R3VWwwQQZTFBpJdzSFV32sGraarOZmpqy2+35sYYx7lQvttPkFyiz/ptbg+MLdKIIXh4bG7PZbGpZeX5jcJw0mpEsPunjgSPw16NkjOK1uRDYKg9WOs63dEWlWDk0e6sDp3qxB1ACOHa+SrWs9wOJl95Ec2AJr4y18AUrsexhf7hFVR0PCcrdh/xvn4s67xYayqpYH0CJ8gZlUIMJWnJnnCOOv5g3OsK7NiO7zhKa/oXmtMaFMisU5A4cSS12Rb8C94HxBTq94f5m+MooSZB5IyuwxhlenMr08eTkvdWBi1ZixcsSJB+j+BUv2zNMPFkdkNoba+HOr3AfnMd+ocD6fg8mHUZHzS6Tv6kt8ocrI3Lk1lwu1tnFjLnTEVHaVa0lNKUUyrKsJM0/96qq9SQdWLNmXyPaOxKL4OBQlmW9YCU0D1lgQ6MZ+vhL/D/JrgxmjVH8U4eVD6cCmXI33ykJZTDrwI1Y7o7yffvCa+ikjfYhHEXzFM37EG7iZ/pgs6oYq7UEJ23JXRnMKrcSt1b/+LPmO8WK9tdmKOmcjExTig3TDcB+TbfQRX62EYWCGUdUAOVU5hgiwCNiNZigfY3ozXkKCXNImLs5T2nYvPNgLa2Ezwzgyx6WpHmS5p132dN9eGml2rRGdI9mQS2rsRYGJqBLbsZoTt63iv052h5Ryzo8KXsRH5ogiwq6pybw46/JkoVaVrkzemNjI4xxRWWdsadqK6pZMXA+8QhYKTo1tFpWq3wMDI4XNwbmHXFhb1bLajRn36WE9rdXGWDar2NUGM3Q3G9JXLWsQmWl/RJ+x53as5bczEeXCtqzSir8J7ux1bVkhyte9kQ3VlIBro8YTNDxzmgerDq6Sujq7BfZxagzA7jcKCUVfv1Zy+qR7kHC5U253+Vlz18lyuoB2bC0xnE/kJBjNZggnVnrLCEknHHuC2GNhLk6S6q0IdJsJev+ZjjHrR+P8c83ZhzIZwewrOSro182BnT267ezgMQvnebGbEYSWFLhP9GNubxsjOJdXvad87nWls6sKGj201nhUEEnnJ7xKh4w6XzpMh3nxWDVIOjJentVoXzy5wqjAVFo8swriJ6sb3VG070olZvbIppZ+67H9GQ1mKAro6TLy9qX4hML9NVx8qKVON2Ht3ZFmj4M51XDE37SnppAeQN6+N3wyHRy1YJZdx+SPes0O0ZsWFLhL6tHDjYjNS2hprZI6yfRjn68Z5gYmiAnbfTiHWZ1jQ2gHMNmZ3ZgVnNrUOxavVBaCT/9MvTi68E6S+hoe+RkN3buMt5/PXZthvppkf79b+afe4lghOOzGaTBAtaAWd3/sulFkSeq4PIGtPIY2vBe+Fhn9IPPsU+/IS5/T343R8074ktu5p4/gce0IoDBAFowq2DogzkfwtHxokMAuECqXKwg+63UPX6s/wMTNkju+/BwwwAAAABJRU5ErkJggg==;" vertex="1" parent="1">
          <mxGeometry x="-220" y="-762.57" width="48.24" height="39.78" as="geometry" />
        </mxCell>
        <mxCell id="_T2XmVHFqXw21ZcmqbBh-530" value="" style="shape=image;verticalLabelPosition=bottom;labelBackgroundColor=default;verticalAlign=top;aspect=fixed;imageAspect=0;image=data:image/png,iVBORw0KGgoAAAANSUhEUgAAADEAAAAzCAIAAACxNndAAAAHoUlEQVRYCc2Yi08URxzH7784FdDEVtCEqq2J1keTHoWcAdHzUQ1Wq4K0qSjRStJqRRHFajVaW/EBRa2PiopaHy1FpT4DWB9VKvgCxRfH7nIP7vb29vZuZ9q5OWfn9vYeGCS9EPLb3dmZz878ft/5/UYnSZIoioIg8Dzv/B/8eJ7XweAfZ5PzN3QNncYkZnLfVvBeX/DjXrkKYuriwdi5Fr2BIX+ZiyzWLrlXSJRBgphW73AQGmJ8lNtpdwLljTdvKUyiB7yV0UFQaMO02OqReg9LYTrf4KE5VHb+hq43P0GBERSmDbt5FYfqcscRV+9gKUy5RXYVBL6MTzNPyOssKXdeuuHpbSbTYithiktlJ+Zb1lfwF294XO4gT3r01FdTJ0reN4inzNOHOZa0zy1rypw1daLDFcTR1u7bd1pYuM7+7vROzJ31lVX0BLXpQUaFiZZHAOC9x96KE0JOkX2IiSPzR4w+KeZD1e4e5KC7UphkAO+2eMuPCfMK7UlaHARo3BxLQ6OEe6m95lm21dHO9qSu6pwuUFbl+nS5PTFTYz4IBzYSxrNb9vOSF61aR6dMwmJkVudLpse2Id13e6JIAMGaXmB78hINLAO456QwKD1IYHsQS7ey1ElGDWckm7iqcwHvaWr1pucpEUq/UlLuxAtKuybtKDHaulXbIzH1STEv3eSwO9BiCSIo3uWMTzPTHMReX8EDfyCWVrr6G9niXQG+GDnoZrrN+8Ou3ZhZ3JVbAZ083+B5LysgBIQDG/0M5r2nBAihT4Zfb1V28cJtr4mlO/yHWzWG3sAkjGc37uXxvstY5IXrtCVeb2AGGNlz9Yhb9ID5ITvB62Hp6u9IKqYZBdYIvkw3HjqNaXyIFJ2zycYF2k62srTbs6VzuUFcasBFkk3c4RrFlzPC+DLGGjvX8rwDheGTl74xsyLpSHdnC2lmaq4ldl/GQJPyrdjxrzdJkQUWt++WyyOmn44L1/4J6PL5Bs+Imdq+TFYtt7gLu9qZy2LCeJbcj2D0N7K+mKVe2VtoXY7Q++qdThzzZVWuvgZtXQh9vbSyG7kXYgIAHq5xR91b+hnMu0+gmAcAbtwbVkFCgQo2OWj5iWrr7j0Oq8t07/2NbPVVEcd8TkjM0y1V9pwVdp+MPqOk3BnjnqgbNlWpnFTdkcvBk7mbzcjhrF1y5qKgYou00TSMC6yCiNR9fQWa1xj3RN3E/ChjjJ7NYrlqa/eNmRXF/WmyUVlspw059oEzArkfC5ZuP/UCeZMYGXlWix31+/d9KTliUkVewUaSiWt9jtSr9pqH6B9+tPyHKO6F8qdw3p1daHP7Z/5snTjAGFPM41ETxrPXm9BaNz70DgxOafQGpvZalFoDxZ3mNvzNjw7Zv88f/E1QfahqSlSXfQ3mM5dRNLSz8vDpan3/bE30OhExOVyATrr/Ux1cygEA15ZFymRUNPiyrApJkd2hPnrQG5jETIaxIE/45Xd3hMI6oJlHzgayg3gje+oi+krJC75Y06U5aoSbq7ajHdcjgUn5GlsyTmnq70h9UsyfLLOFK8gCTADAKUtsiZkcTv7tTjB5iS3C2JqP5hfZZYAy49xijY/JyLPKAH0qObqpqUMfH/oLMEEIW5/7Wp6hSHnB+MbNiSIQoUwT8y244lu9U2O549PMTa0oq6F999FTNFzoT2HCz5pbvcNnqB0zlEB15/1ZASnad1qRIrrNmjK0po9f+OJfxe87UxkAIC8A02JrW3sQXBDTheuecMc99AAqO9nEPfV3Wn1V7Ke1K4+Y2YnV/OMCxR9yi1EA/vkXOsxJzGSO1yoVrMLEWuW41G6IECYbYGRv30eLcrNZ6v9qDlTQWJCOvgoj/HTPSbSdl5QrC71quxPnMwqTIIJYsjN6vLhUM07Gn7z0DZ6sveK5RXYIoc0h03KjNzAP2tCXTMgL2qxwlChMEHYvA9EbmJ/95YrFLo+erT3Bg9I7OjqRIH25Saln9AZmiIkDAPrTbvWLm/cHn/u63GBkmIKJnh5s4wrTLYIIaTteoPpGJEh0Dzn+ybt0Q+NkMMnEBc0ThLDuthSuqqQ7XVDSBfxSlF2ouC3dQG9g0l8JUqiyVPhzQ5zAqN7SYIIQHqrWqPjoNycvseFjjBXbFA+lG+gNDBGkLVo1bbNfqzTTpJwiu3qesEptPehSjUEuP8i24KPpHUfCttEbGFyo0IJEekjyO5NbBKFhHp9mvvPAq80EIaysdocu4rCpDM5fT10UIxQIRJCmU4JEmLILbRDCK7fUztQnxbznVyQQYZkghPV3pFFZSly8nd5xtwUFcEOjROSYjEQbWJCqzmn7QPkxNLDqjGlQegc5uonEhM9SNu7lk0xcXCp74TrKxVqe+cLlgBgrnCARaPxh5Eh3YHpH4Tan2S8Z2HOiMOFGbhG0c0hm8FY9JXzKQARpabAgEaDETE4G6ARmXqG9eJfzbJ2IU1ncOf4fExP9Aq7vjp51q3QZj4odoiFEkAjTnBVI1iP/XocJ9+h0ge8P8PQ6YkHCxX5KNqcZBDgLfVNMhOzAGWFivmWIicOqQ8ZzuMCNJqmy2l1a6Vpb5izY5Niwm+cFf5JPGmkZrz9PWr31zL1/AQP5YiXba7SPAAAAAElFTkSuQmCC;" vertex="1" parent="1">
          <mxGeometry x="-142.88" y="-617.1" width="49" height="51" as="geometry" />
        </mxCell>
        <mxCell id="_T2XmVHFqXw21ZcmqbBh-532" value="&lt;div style=&quot;font-size: 18px;&quot;&gt;&lt;span style=&quot;background-color: initial; font-size: 18px;&quot;&gt;500 р&lt;/span&gt;&lt;br style=&quot;font-size: 18px;&quot;&gt;&lt;/div&gt;" style="whiteSpace=wrap;html=1;align=left;strokeColor=none;fontSize=18;fontStyle=1" vertex="1" parent="1">
          <mxGeometry x="270.65" y="-686.8499999999999" width="77.89" height="20" as="geometry" />
        </mxCell>
        <mxCell id="_T2XmVHFqXw21ZcmqbBh-535" value="&lt;div style=&quot;font-size: 12px;&quot;&gt;&lt;font style=&quot;font-size: 12px;&quot;&gt;&lt;br style=&quot;font-size: 12px;&quot;&gt;&lt;/font&gt;&lt;/div&gt;&lt;font style=&quot;font-size: 12px;&quot;&gt;&lt;div style=&quot;font-size: 12px;&quot;&gt;&lt;font style=&quot;font-size: 12px;&quot;&gt;&lt;br style=&quot;font-size: 12px;&quot;&gt;&lt;/font&gt;&lt;/div&gt;&lt;b style=&quot;font-size: 12px;&quot;&gt;&lt;font style=&quot;font-size: 12px;&quot;&gt;Адрес доставки:&amp;nbsp;&lt;/font&gt;&lt;/b&gt;&lt;/font&gt;&lt;span style=&quot;font-size: 12px; background-color: initial;&quot;&gt;Минская 2ж&lt;/span&gt;&lt;div style=&quot;font-size: 12px;&quot;&gt;&lt;div style=&quot;font-size: 12px;&quot;&gt;&lt;span style=&quot;background-color: initial; font-size: 12px;&quot;&gt;&lt;font style=&quot;font-size: 12px;&quot;&gt;&lt;br style=&quot;font-size: 12px;&quot;&gt;&lt;/font&gt;&lt;/span&gt;&lt;/div&gt;&lt;div style=&quot;font-size: 12px;&quot;&gt;&lt;div style=&quot;font-size: 12px;&quot;&gt;&lt;br style=&quot;font-size: 12px;&quot;&gt;&lt;/div&gt;&lt;/div&gt;&lt;/div&gt;" style="rounded=0;whiteSpace=wrap;html=1;align=left;strokeColor=none;fontSize=12;" vertex="1" parent="1">
          <mxGeometry x="205.76999999999998" y="-896.9999999999999" width="180.06" height="26.03" as="geometry" />
        </mxCell>
        <mxCell id="_T2XmVHFqXw21ZcmqbBh-539" value="" style="rounded=1;whiteSpace=wrap;html=1;strokeColor=none;" vertex="1" parent="1">
          <mxGeometry x="714.38" y="-697.19" width="205.18" height="22.71" as="geometry" />
        </mxCell>
        <mxCell id="_T2XmVHFqXw21ZcmqbBh-540" value="&lt;div style=&quot;font-size: 9px;&quot;&gt;Оплата картой&amp;nbsp; *** 1411&lt;/div&gt;" style="rounded=0;whiteSpace=wrap;html=1;align=left;strokeColor=none;fontSize=9;" vertex="1" parent="1">
          <mxGeometry x="720.79" y="-709.5" width="131.79" height="26.03" as="geometry" />
        </mxCell>
        <mxCell id="_T2XmVHFqXw21ZcmqbBh-541" value="&lt;font style=&quot;font-size: 13px;&quot;&gt;Состав заказа:&lt;/font&gt;" style="text;html=1;align=center;verticalAlign=middle;whiteSpace=wrap;rounded=0;fontStyle=1;fontSize=13;" vertex="1" parent="1">
          <mxGeometry x="713.39" y="-855.5800000000002" width="110" height="11.76" as="geometry" />
        </mxCell>
        <mxCell id="_T2XmVHFqXw21ZcmqbBh-542" value="Огурцы&amp;nbsp; &amp;nbsp; &amp;nbsp; &amp;nbsp; &amp;nbsp; &amp;nbsp; &amp;nbsp; &amp;nbsp; &amp;nbsp; &amp;nbsp;1 шт.&amp;nbsp; &amp;nbsp; &amp;nbsp; &amp;nbsp;200 р" style="whiteSpace=wrap;html=1;align=left;strokeColor=none;fontSize=10;" vertex="1" parent="1">
          <mxGeometry x="717.39" y="-802.0500000000001" width="200" height="20" as="geometry" />
        </mxCell>
        <mxCell id="_T2XmVHFqXw21ZcmqbBh-543" value="Молоко 2.5%&amp;nbsp; &amp;nbsp; &amp;nbsp; &amp;nbsp; &amp;nbsp; 1 шт.&amp;nbsp; &amp;nbsp; &amp;nbsp; &amp;nbsp;100 р" style="whiteSpace=wrap;html=1;align=left;strokeColor=none;fontSize=10;" vertex="1" parent="1">
          <mxGeometry x="714.7900000000001" y="-829.4800000000001" width="200" height="20" as="geometry" />
        </mxCell>
        <mxCell id="_T2XmVHFqXw21ZcmqbBh-544" value="Томаты&amp;nbsp; &amp;nbsp; &amp;nbsp; &amp;nbsp; &amp;nbsp; &amp;nbsp; &amp;nbsp; &amp;nbsp; &amp;nbsp; &amp;nbsp; 1 шт.&amp;nbsp; &amp;nbsp; &amp;nbsp; &amp;nbsp;200 р" style="whiteSpace=wrap;html=1;align=left;strokeColor=none;fontSize=10;" vertex="1" parent="1">
          <mxGeometry x="714.7900000000002" y="-782.0500000000001" width="200" height="20" as="geometry" />
        </mxCell>
        <mxCell id="_T2XmVHFqXw21ZcmqbBh-545" value="" style="line;strokeWidth=2;html=1;" vertex="1" parent="1">
          <mxGeometry x="720.7900000000001" y="-729.32" width="197.81" height="10" as="geometry" />
        </mxCell>
        <mxCell id="_T2XmVHFqXw21ZcmqbBh-546" value="&lt;div style=&quot;font-size: 14px;&quot;&gt;&lt;font style=&quot;font-size: 14px;&quot;&gt;Итого&lt;/font&gt;&lt;/div&gt;" style="whiteSpace=wrap;html=1;align=left;strokeColor=none;fontSize=10;" vertex="1" parent="1">
          <mxGeometry x="714.79" y="-650.14" width="50" height="20" as="geometry" />
        </mxCell>
        <mxCell id="_T2XmVHFqXw21ZcmqbBh-547" value="" style="endArrow=none;html=1;rounded=0;strokeWidth=2;" edge="1" parent="1">
          <mxGeometry relative="1" as="geometry">
            <mxPoint x="719.8100000000001" y="-674.48" as="sourcePoint" />
            <mxPoint x="918.6" y="-674.1800000000001" as="targetPoint" />
          </mxGeometry>
        </mxCell>
        <mxCell id="_T2XmVHFqXw21ZcmqbBh-548" value="&lt;div style=&quot;font-size: 18px;&quot;&gt;&lt;span style=&quot;background-color: initial; font-size: 18px;&quot;&gt;500 р&lt;/span&gt;&lt;br style=&quot;font-size: 18px;&quot;&gt;&lt;/div&gt;" style="whiteSpace=wrap;html=1;align=left;strokeColor=none;fontSize=18;fontStyle=1" vertex="1" parent="1">
          <mxGeometry x="781.85" y="-650.14" width="77.89" height="20" as="geometry" />
        </mxCell>
        <mxCell id="_T2XmVHFqXw21ZcmqbBh-549" value="&lt;div style=&quot;font-size: 12px;&quot;&gt;&lt;font style=&quot;font-size: 12px;&quot;&gt;&lt;br style=&quot;font-size: 12px;&quot;&gt;&lt;/font&gt;&lt;/div&gt;&lt;font style=&quot;font-size: 12px;&quot;&gt;&lt;div style=&quot;font-size: 12px;&quot;&gt;&lt;font style=&quot;font-size: 12px;&quot;&gt;&lt;br style=&quot;font-size: 12px;&quot;&gt;&lt;/font&gt;&lt;/div&gt;&lt;b style=&quot;font-size: 12px;&quot;&gt;&lt;font style=&quot;font-size: 12px;&quot;&gt;Адрес доставки:&amp;nbsp;&lt;/font&gt;&lt;/b&gt;&lt;/font&gt;&lt;span style=&quot;font-size: 12px; background-color: initial;&quot;&gt;Минская 2ж&lt;/span&gt;&lt;div style=&quot;font-size: 12px;&quot;&gt;&lt;div style=&quot;font-size: 12px;&quot;&gt;&lt;span style=&quot;background-color: initial; font-size: 12px;&quot;&gt;&lt;font style=&quot;font-size: 12px;&quot;&gt;&lt;br style=&quot;font-size: 12px;&quot;&gt;&lt;/font&gt;&lt;/span&gt;&lt;/div&gt;&lt;div style=&quot;font-size: 12px;&quot;&gt;&lt;div style=&quot;font-size: 12px;&quot;&gt;&lt;br style=&quot;font-size: 12px;&quot;&gt;&lt;/div&gt;&lt;/div&gt;&lt;/div&gt;" style="rounded=0;whiteSpace=wrap;html=1;align=left;strokeColor=none;fontSize=12;" vertex="1" parent="1">
          <mxGeometry x="714.79" y="-891.3199999999999" width="180.06" height="26.03" as="geometry" />
        </mxCell>
        <mxCell id="_T2XmVHFqXw21ZcmqbBh-551" value="" style="rounded=1;whiteSpace=wrap;html=1;fillColor=#E89FED;strokeColor=#9673a6;" vertex="1" parent="1">
          <mxGeometry x="713.39" y="-754.3199999999999" width="205.21" height="190" as="geometry" />
        </mxCell>
        <mxCell id="_T2XmVHFqXw21ZcmqbBh-142" value="&lt;font style=&quot;font-size: 13px;&quot;&gt;Мы начали собирать ваш&amp;nbsp;&lt;/font&gt;&lt;div style=&quot;font-size: 13px;&quot;&gt;&lt;font style=&quot;font-size: 13px;&quot;&gt;дополнительный&amp;nbsp;&lt;/font&gt;&lt;span style=&quot;background-color: initial; font-size: 13px;&quot;&gt;заказ&amp;nbsp;&lt;/span&gt;&lt;/div&gt;&lt;div style=&quot;font-size: 13px;&quot;&gt;&lt;span style=&quot;background-color: initial; font-size: 13px;&quot;&gt;и&amp;nbsp;&lt;/span&gt;&lt;span style=&quot;background-color: initial; font-size: 13px;&quot;&gt;привезем&amp;nbsp;&lt;/span&gt;&lt;span style=&quot;background-color: initial; font-size: 13px;&quot;&gt;его&amp;nbsp;&lt;/span&gt;&lt;/div&gt;&lt;div style=&quot;font-size: 13px;&quot;&gt;&lt;span style=&quot;background-color: initial; font-size: 13px;&quot;&gt;вместе с основным&lt;/span&gt;&lt;/div&gt;" style="text;html=1;align=center;verticalAlign=middle;resizable=0;points=[];autosize=1;strokeColor=none;fillColor=none;fontSize=13;fontStyle=1;fontColor=#FFFFFF;" vertex="1" parent="1">
          <mxGeometry x="727.39" y="-697.23" width="180" height="80" as="geometry" />
        </mxCell>
        <mxCell id="_T2XmVHFqXw21ZcmqbBh-552" value="Заказ успешно оплачен!" style="text;html=1;align=center;verticalAlign=middle;resizable=0;points=[];autosize=1;strokeColor=none;fillColor=none;fontSize=14;fontStyle=1;fontColor=#FFFFFF;" vertex="1" parent="1">
          <mxGeometry x="720.8" y="-730.14" width="180" height="30" as="geometry" />
        </mxCell>
        <mxCell id="_T2XmVHFqXw21ZcmqbBh-553" value="" style="edgeStyle=segmentEdgeStyle;endArrow=classic;html=1;curved=0;rounded=0;endSize=8;startSize=8;fillColor=#e1d5e7;strokeColor=#9673a6;" edge="1" parent="1" target="_T2XmVHFqXw21ZcmqbBh-551">
          <mxGeometry width="50" height="50" relative="1" as="geometry">
            <mxPoint x="600" y="-721" as="sourcePoint" />
            <mxPoint x="609.03168" y="-662.29" as="targetPoint" />
            <Array as="points">
              <mxPoint x="600" y="-721" />
              <mxPoint x="600" y="-641" />
            </Array>
          </mxGeometry>
        </mxCell>
        <mxCell id="_T2XmVHFqXw21ZcmqbBh-554" value="Выбрав необходимы товары,&lt;div&gt;&amp;nbsp;клиент переходит в корзину&lt;/div&gt;" style="text;html=1;align=center;verticalAlign=middle;resizable=0;points=[];autosize=1;strokeColor=#9673a6;fillColor=#e1d5e7;fontSize=11;labelBorderColor=none;sketch=1;curveFitting=1;jiggle=2;" vertex="1" parent="1">
          <mxGeometry x="-20" y="-865.29" width="170" height="40" as="geometry" />
        </mxCell>
        <mxCell id="_T2XmVHFqXw21ZcmqbBh-556" value="" style="edgeStyle=segmentEdgeStyle;endArrow=classic;html=1;curved=0;rounded=0;endSize=8;startSize=8;exitX=0.36;exitY=0.008;exitDx=0;exitDy=0;exitPerimeter=0;strokeColor=#9673A6;" edge="1" parent="1" source="_T2XmVHFqXw21ZcmqbBh-1">
          <mxGeometry width="50" height="50" relative="1" as="geometry">
            <mxPoint x="-20" y="-770" as="sourcePoint" />
            <mxPoint x="30" y="-820" as="targetPoint" />
          </mxGeometry>
        </mxCell>
        <mxCell id="_T2XmVHFqXw21ZcmqbBh-557" value="" style="edgeStyle=segmentEdgeStyle;endArrow=classic;html=1;curved=0;rounded=0;endSize=8;startSize=8;exitX=0.699;exitY=1.014;exitDx=0;exitDy=0;exitPerimeter=0;entryX=0.383;entryY=0.995;entryDx=0;entryDy=0;entryPerimeter=0;fontColor=#E89FED;strokeColor=#9673A6;" edge="1" parent="1" target="_T2XmVHFqXw21ZcmqbBh-489">
          <mxGeometry width="50" height="50" relative="1" as="geometry">
            <mxPoint x="80.02999999999993" y="-822.1299999999999" as="sourcePoint" />
            <mxPoint x="171.2" y="-783.76" as="targetPoint" />
            <Array as="points">
              <mxPoint x="80" y="-772" />
            </Array>
          </mxGeometry>
        </mxCell>
      </root>
    </mxGraphModel>
  </diagram>
</mxfile>
